<svg width="8rem" height="8rem" viewBox="0 0 80 80" fill="none" xmlns="http://www.w3.org/2000/svg">
<rect width="80" height="80" rx="40" fill="#F6FBFE"/>
<g clip-path="url(#clip0)">
<path fill-rule="evenodd" clip-rule="evenodd" d="M55.2667 31.9307C55.488 31.2027 55.2667 30.6667 54.2067 30.6667H50.7067C49.816 30.6667 49.4053 31.1293 49.1827 31.64C49.1827 31.64 47.4027 35.9013 44.8813 38.6693C44.0653 39.472 43.6947 39.7267 43.2493 39.7267C43.0267 39.7267 42.692 39.472 42.692 38.7427V31.9307C42.692 31.056 42.4467 30.6667 41.7053 30.6667H36.2013C35.6453 30.6667 35.3107 31.072 35.3107 31.4573C35.3107 32.2853 36.572 32.4773 36.7013 34.808V39.872C36.7013 40.9827 36.4973 41.184 36.052 41.184C34.8653 41.184 31.9787 36.9027 30.2653 32.004C29.9333 31.0507 29.5973 30.6667 28.7027 30.6667H25.2C24.2 30.6667 24 31.1293 24 31.64C24 32.5493 25.1867 37.0667 29.5267 43.0413C32.42 47.1213 36.4933 49.3333 40.204 49.3333C42.4293 49.3333 42.704 48.8427 42.704 47.996V44.912C42.704 43.9293 42.9147 43.7333 43.62 43.7333C44.14 43.7333 45.0293 43.9893 47.1067 45.956C49.48 48.288 49.8707 49.3333 51.2067 49.3333H54.7067C55.7067 49.3333 56.208 48.8427 55.92 47.872C55.6027 46.9067 54.4693 45.5053 52.9667 43.8427C52.1507 42.896 50.9267 41.876 50.5547 41.3653C50.036 40.7107 50.184 40.4187 50.5547 39.836C50.5547 39.836 54.8213 33.9347 55.2653 31.9307H55.2667Z" fill="black"/>
</g>
<defs>
<clipPath id="clip0">
<rect width="32" height="32" fill="white" transform="translate(24 24)"/>
</clipPath>
</defs>
</svg>
