<svg width="40" height="40" viewBox="0 0 40 40" fill="none" xmlns="http://www.w3.org/2000/svg">
<g clip-path="url(#clip0)">
<path d="M36.4844 16.4848C36.7952 16.4848 37.0933 16.3613 37.313 16.1415C37.588 15.8665 40 13.3752 40 10.6254C40 10.1849 39.7492 9.77732 39.3539 9.57818L20.5258 0.125059C20.195 -0.0410352 19.8049 -0.0410352 19.4741 0.125059L0.646016 9.57818C0.25875 9.77334 0 10.1777 0 10.6254C0 13.3747 2.41086 15.8654 2.6868 16.1414C2.91273 16.3675 3.22195 16.4848 3.51562 16.4848H4.6875V32.9692H3.51562C3.20477 32.9692 2.90672 33.0927 2.68703 33.3125C2.41195 33.5874 0 36.0788 0 38.8286C0 39.4758 0.524687 40.0005 1.17188 40.0005H38.8281C39.4753 40.0005 40 39.4758 40 38.8286C40 36.0788 37.588 33.5875 37.313 33.3125C37.0933 33.0926 36.7952 32.9692 36.4844 32.9692H35.3125V16.4848H36.4844ZM20 2.48365L33.8823 9.45357H6.11773L20 2.48365ZM35.9694 35.313C36.4295 35.8498 37.0742 36.7351 37.418 37.6567H2.58188C2.92594 36.7347 3.57102 35.849 4.03055 35.313H35.9694ZM7.03125 32.9692V16.4848H9.375V32.9692H7.03125ZM11.7188 32.9692V16.4848H16.4844V32.9692H11.7188ZM18.8281 32.9692V16.4848H21.1719V32.9692H18.8281ZM23.5156 32.9692V16.4848H28.2812V32.9692H23.5156ZM30.625 32.9692V16.4848H32.9688V32.9692H30.625ZM4.0307 14.1411C3.57055 13.6043 2.92602 12.7189 2.58211 11.7965H37.4177C37.0736 12.7194 36.4291 13.6051 35.9695 14.1411H4.0307Z" fill="#0227AB"/>
</g>
<defs>
<clipPath id="clip0">
<rect width="40" height="40" fill="white"/>
</clipPath>
</defs>
</svg>
