<svg width="40" height="40" viewBox="0 0 40 40" fill="none" xmlns="http://www.w3.org/2000/svg">
<g clip-path="url(#clip0)">
<path d="M0.999999 3.06738C0.447714 3.06738 0 3.5151 0 4.06738V34.9333C0 35.4856 0.447715 35.9333 1 35.9333H39C39.5523 35.9333 40 35.4856 40 34.9333V4.06738C40 3.5151 39.5523 3.06738 39 3.06738H0.999999ZM37.6347 32.568C37.6347 33.1203 37.187 33.568 36.6347 33.568H3.36531C2.81302 33.568 2.36531 33.1203 2.36531 32.568V6.4327C2.36531 5.88041 2.81303 5.43269 3.36531 5.43269H36.6347C37.187 5.43269 37.6347 5.88041 37.6347 6.43269V32.568Z" fill="#0227AB"/>
<path d="M5.8184 24.0907H7.72752V25.7273C7.72752 25.8069 7.753 25.8721 7.80425 25.9231C7.85537 25.9744 7.92072 26 8.00032 26H9.42355C9.49741 26 9.56132 25.9744 9.61531 25.9231C9.6693 25.8721 9.69621 25.8069 9.69621 25.7273V24.0907H14.0002C14.0796 24.0907 14.145 24.0654 14.1962 24.0141C14.2475 23.9629 14.2729 23.8977 14.2729 23.818V22.7271C14.2729 22.6479 14.2475 22.5823 14.1962 22.5313C14.1451 22.4801 14.0796 22.4544 14.0002 22.4544H9.69607V21.4487H12.5938C13.7301 21.4487 14.6575 21.1024 15.3765 20.409C16.0951 19.7162 16.4546 18.8214 16.4546 17.7243C16.4546 16.6281 16.0951 15.7332 15.3765 15.0397C14.6577 14.3469 13.7301 14 12.5938 14H8.00018C7.92056 14 7.85535 14.0256 7.80411 14.0766C7.753 14.1279 7.72738 14.1935 7.72738 14.2727V19.6336H5.8184C5.73879 19.6336 5.67356 19.6605 5.62233 19.7145C5.57123 19.7685 5.54559 19.8324 5.54559 19.9062V21.176C5.54559 21.2556 5.57107 21.3208 5.62233 21.3721C5.67358 21.4234 5.73865 21.4487 5.8184 21.4487H7.72752V22.4544H5.8184C5.73879 22.4544 5.67356 22.48 5.62233 22.5313C5.57123 22.5823 5.54559 22.6478 5.54559 22.7271V23.818C5.54559 23.8977 5.57107 23.9629 5.62233 24.0141C5.67356 24.0654 5.73877 24.0907 5.8184 24.0907ZM9.69607 15.8155H12.4233C13.0255 15.8155 13.5113 15.9916 13.8807 16.3439C14.2499 16.6962 14.4347 17.1565 14.4347 17.7245C14.4347 18.2927 14.2499 18.7532 13.8807 19.1051C13.5113 19.4577 13.0255 19.6337 12.4233 19.6337H9.69607V15.8155Z" fill="#0227AB"/>
<path d="M19.5059 19.5811C19.5059 19.0288 19.9536 18.5811 20.5059 18.5811H33.1656C33.7179 18.5811 34.1656 19.0288 34.1656 19.5811V19.9464C34.1656 20.4986 33.7179 20.9464 33.1656 20.9464H20.5059C19.9536 20.9464 19.5059 20.4986 19.5059 19.9464V19.5811Z" fill="#0227AB"/>
<path d="M19 14.9824C19 14.4301 19.4477 13.9824 20 13.9824H28.3023C28.8546 13.9824 29.3023 14.4301 29.3023 14.9824V15.3477C29.3023 15.9 28.8546 16.3477 28.3023 16.3477H20C19.4477 16.3477 19 15.9 19 15.3477V14.9824Z" fill="#0227AB"/>
<path d="M18.5059 24.1807C18.5059 23.6284 18.9536 23.1807 19.5059 23.1807H33.1656C33.7179 23.1807 34.1656 23.6284 34.1656 24.1807V24.546C34.1656 25.0983 33.7179 25.546 33.1656 25.546H19.5059C18.9536 25.546 18.5059 25.0983 18.5059 24.546V24.1807Z" fill="#0227AB"/>
</g>
<defs>
<clipPath id="clip0">
<rect width="40" height="40" fill="white"/>
</clipPath>
</defs>
</svg>
