<svg width="47" height="88" viewBox="0 0 47 88" fill="none" xmlns="http://www.w3.org/2000/svg">
<path d="M35.7689 80.6452C35.5248 80.6452 35.2806 80.6452 34.9144 80.6452C34.7923 80.6452 34.7923 80.6452 34.6702 80.6452C34.5481 80.6452 34.5482 80.6452 34.4261 80.6452C34.304 80.6452 34.0598 80.7638 33.9378 80.7638C33.3274 80.8824 32.5949 81.2382 31.8624 81.4754C31.13 81.7126 30.5196 82.0684 29.9092 82.4242C29.2988 82.78 28.6884 83.0172 28.3222 83.2544C27.956 83.4916 27.7118 83.6102 27.7118 83.6102C27.7118 83.6102 27.7118 83.6102 27.8339 83.7288C27.956 83.7288 28.078 83.8474 28.3222 83.8474C28.8105 83.966 29.4209 84.0846 30.0313 84.2032C30.1534 84.2032 30.3975 84.3218 30.5196 84.3218C30.7637 84.3218 30.8858 84.3217 31.13 84.4403C31.4962 84.4403 31.8624 84.559 32.3508 84.559C33.0832 84.559 33.9378 84.4404 34.5482 84.3218C35.891 83.966 36.7456 83.1358 37.3559 82.5428C37.9663 81.8312 38.2105 81.3568 38.2105 81.3568C38.2105 81.3568 37.7222 81.1196 36.9897 80.8824C36.7455 80.7638 36.2572 80.6452 35.7689 80.6452Z" fill="#0227AB"/>
<path d="M37.7221 75.5488C37.3559 75.0744 36.9896 74.6 36.6234 74.2442C36.3792 74.007 36.1351 73.8884 36.013 73.6512C35.8909 73.5326 35.7688 73.5326 35.6468 73.414C35.5247 73.2954 35.4026 73.2954 35.2805 73.1768C34.9143 72.821 34.5481 72.5838 34.1818 72.4652C33.9377 72.2281 33.6935 72.2281 33.6935 72.2281C33.6935 72.2281 33.6935 72.4653 33.6935 72.821C33.6935 73.1768 33.6935 73.7698 33.8156 74.3628C33.9377 74.9558 34.0598 75.6674 34.1818 76.2604C34.426 76.8534 34.6701 77.5649 35.0364 78.0393C35.1585 78.1579 35.1585 78.2765 35.2805 78.3951L35.5247 78.6323C35.7688 78.8695 35.8909 78.9881 36.1351 79.1067C36.3792 79.2253 36.5013 79.3439 36.7455 79.4625C36.9896 79.5811 37.1117 79.5811 37.3559 79.6997C38.0883 79.9369 38.5766 79.8183 38.5766 79.8183C38.5766 79.8183 38.6987 79.2253 38.5766 78.3951C38.5766 77.9207 38.4546 77.4463 38.3325 76.972C38.3325 76.8534 38.2104 76.7348 38.2104 76.6162C38.2104 76.4976 38.0883 76.379 38.0883 76.2604C38.0883 76.0232 37.9662 75.786 37.7221 75.5488Z" fill="#0227AB"/>
<path d="M27.3454 76.9714C27.3454 76.9714 27.2233 76.8528 27.1013 76.8528C26.9792 76.7342 26.6129 76.497 26.3688 76.3784C26.2467 76.2598 26.0026 76.1412 25.7584 76.1412C25.5142 76.0226 25.2701 76.0226 25.0259 75.904C24.5376 75.7854 23.9272 75.6668 23.3168 75.6668C22.9506 75.6668 22.5844 75.6668 22.2182 75.7854C21.8519 75.7854 21.4857 75.904 21.1194 75.904C20.7532 75.904 20.387 76.0226 20.0208 76.1412C19.6545 76.2598 19.2883 76.2598 18.9221 76.3784C18.1896 76.497 17.5792 76.6156 17.213 76.7342C16.7247 76.8528 16.4805 76.8528 16.4805 76.8528C16.4805 76.8528 16.7247 76.9714 17.0909 77.2086C17.335 77.3272 17.4571 77.4458 17.8234 77.5644C17.9454 77.683 18.0675 77.683 18.1896 77.8016C18.3117 77.9202 18.4337 77.9202 18.6779 78.0388C19.0441 78.1574 19.2883 78.276 19.6545 78.5131C19.7766 78.6317 20.0208 78.6317 20.1428 78.7503C20.2649 78.7503 20.2649 78.8689 20.387 78.8689C20.5091 78.8689 20.6311 78.8689 20.6311 78.9875C21.3636 79.2247 22.0961 79.3433 22.8285 79.3433C24.2935 79.3433 25.3922 78.7503 26.1246 78.2759C26.4909 78.0388 26.735 77.8016 26.9792 77.5644C27.3454 77.09 27.4675 76.9714 27.3454 76.9714C27.4675 76.9714 27.4675 76.9714 27.3454 76.9714Z" fill="#0227AB"/>
<path d="M25.3923 72.9363C25.5144 73.5293 25.8807 74.0037 26.1248 74.3595C26.2469 74.5967 26.491 74.7153 26.6131 74.8339C26.7352 74.9525 26.9794 75.0711 27.1014 75.1897C27.4677 75.4269 27.7118 75.5455 27.956 75.5455C28.0781 75.5455 28.2001 75.5455 28.2001 75.6641C28.3222 75.6641 28.3222 75.6641 28.3222 75.6641C28.3222 75.6641 28.4443 75.5455 28.4443 75.3083C28.5664 75.0711 28.5664 74.7153 28.6884 74.3595C28.8105 73.5293 28.9326 72.4619 28.5664 71.3946C28.4443 70.8016 28.2001 70.3272 27.8339 69.8528C27.5897 69.3784 27.2235 68.904 26.8573 68.5482C26.7352 68.311 26.491 68.1924 26.369 67.9552C26.2469 67.8366 26.1248 67.5995 26.0027 67.4809C25.7586 67.2437 25.6365 67.1251 25.6365 67.1251C25.6365 67.1251 25.7586 67.2437 25.6365 67.5994C25.5144 67.9552 25.3923 68.5482 25.3923 69.1412C25.3923 69.497 25.2703 69.7342 25.2703 70.09C25.2703 70.4458 25.2703 70.8016 25.2703 71.0388C25.2703 71.3946 25.2703 71.7504 25.3923 71.9876C25.2703 72.3433 25.3923 72.6991 25.3923 72.9363Z" fill="#0227AB"/>
<path d="M17.7014 69.3794C17.5793 69.1422 17.3352 68.905 17.091 68.6678C16.8469 68.4306 16.4806 68.0748 15.9923 67.8376C15.504 67.6004 15.0157 67.3632 14.4053 67.126C14.1612 67.126 13.917 67.0074 13.6729 67.0074C13.4287 67.0074 13.1846 66.8888 12.9404 66.8888C11.7196 66.6516 10.3768 66.6516 9.27806 66.533C8.17937 66.533 7.4469 66.4144 7.4469 66.4144C7.4469 66.4144 7.69105 66.7702 8.17937 67.2446C8.5456 67.719 9.27806 68.312 10.0105 68.905C10.1326 69.0236 10.2547 69.0236 10.3768 69.1422L10.4988 69.2608C10.4988 69.2608 10.6209 69.3794 10.743 69.3794C10.9872 69.6166 11.2313 69.8538 11.4755 69.9724C11.7196 70.091 11.9638 70.2096 12.2079 70.3282C12.4521 70.4468 12.6962 70.5654 12.9404 70.5654C14.2833 70.9211 15.504 70.6839 16.3586 70.4468C17.2131 70.091 17.7014 69.7352 17.7014 69.7352C17.7014 69.7352 17.8235 69.6166 17.7014 69.3794Z" fill="#0227AB"/>
<path d="M18.1897 67.8389C18.4339 68.0761 18.6781 68.3133 18.8001 68.4319C19.0443 68.5505 19.1664 68.5505 19.1664 68.5505C19.1664 68.5505 19.5326 68.0761 20.0209 67.3645C20.3871 66.6529 20.8755 65.5856 20.8755 64.3996C20.8755 64.0438 20.8755 63.5694 20.7534 63.095C20.7534 62.8578 20.6313 62.7392 20.6313 62.502C20.6313 62.2648 20.5092 62.1462 20.5092 61.909C20.3871 61.5533 20.2651 61.3161 20.143 60.9603C20.143 60.8417 20.0209 60.8417 20.0209 60.7231C20.0209 60.6045 20.0209 60.6045 19.8988 60.4859C19.8988 60.3673 19.7768 60.2487 19.7768 60.1301C19.5326 59.6557 19.4105 59.4185 19.4105 59.4185C19.4105 59.4185 19.0443 60.0115 18.556 60.8417C18.4339 61.0789 18.3118 61.3161 18.1897 61.5533C18.1897 61.6719 18.0677 61.7905 18.0677 61.909C18.0677 62.0276 17.9456 62.1462 17.9456 62.2648C17.7014 62.7392 17.5794 63.3322 17.4573 63.9252C17.4573 64.1624 17.3352 64.3996 17.3352 64.5182C17.3352 64.7554 17.3352 64.874 17.3352 65.1112C17.3352 65.7042 17.4573 66.1786 17.5794 66.6529C17.5794 67.2459 17.9456 67.6017 18.1897 67.8389Z" fill="#0227AB"/>
<path d="M8.54545 60.4843C8.78961 60.4843 9.03377 60.4843 9.27792 60.4843C10.2545 60.4843 10.7429 60.2471 10.7429 60.2471C10.7429 60.2471 10.7429 60.1285 10.6208 59.8913C10.6208 59.7727 10.4987 59.6541 10.4987 59.5355C10.4987 59.4169 10.3766 59.2983 10.2545 59.0611C10.1325 58.7053 9.88831 58.3495 9.52208 57.9938C9.4 57.8752 9.4 57.8752 9.27792 57.7566C9.15584 57.638 9.03377 57.5194 8.91169 57.5194C8.78961 57.2822 8.54546 57.1636 8.3013 56.9264C8.05714 56.8078 7.69091 56.5706 7.32468 56.452C6.95844 56.3334 6.71429 56.0962 6.34806 55.9776C5.61559 55.7404 4.88312 55.5032 4.15066 55.266C3.54027 55.0288 2.92988 54.7916 2.44157 54.673C2.07534 54.673 1.83118 54.5544 1.83118 54.5544C1.83118 54.5544 1.95326 54.7916 2.07534 55.1474C2.19741 55.3846 2.31949 55.6218 2.44157 55.859C2.56365 56.0962 2.8078 56.3334 2.92988 56.6892C3.05196 56.9264 3.29611 57.2822 3.54027 57.5194C3.54027 57.638 3.66235 57.638 3.66235 57.7566C3.66235 57.8752 3.78442 57.8752 3.78442 57.9938C3.9065 58.1124 4.02858 58.2309 4.15066 58.4681C4.39481 58.7053 4.63897 59.0611 5.0052 59.2983C5.12728 59.4169 5.24936 59.5355 5.37143 59.6541C5.49351 59.7727 5.61559 59.8913 5.85975 59.8913C6.47013 60.2471 7.08052 60.4843 7.69091 60.4843C8.05714 60.4843 8.3013 60.4843 8.54545 60.4843Z" fill="#0227AB"/>
<path d="M11.2314 57.4013C11.2314 57.8757 11.4756 58.2315 11.5977 58.5873C11.7197 58.7059 11.7197 58.9431 11.8418 59.0617C11.9639 59.1803 11.9639 59.2989 12.086 59.4175C12.2081 59.5361 12.3301 59.6547 12.3301 59.6547C12.3301 59.6547 12.8184 59.2989 13.4288 58.7059C13.5509 58.5873 13.673 58.3501 13.9171 58.2315C14.0392 57.9943 14.2834 57.8757 14.4055 57.6385C14.6496 57.1641 15.0158 56.6898 15.1379 56.2154C15.1379 56.0968 15.26 55.9782 15.26 55.8596C15.26 55.741 15.3821 55.6224 15.3821 55.3852C15.3821 55.148 15.5042 54.7922 15.5042 54.555C15.5042 53.962 15.5042 53.369 15.5042 52.8946C15.5042 52.6574 15.5042 52.4203 15.3821 52.1831C15.3821 51.9459 15.3821 51.8273 15.3821 51.5901C15.3821 51.2343 15.26 51.1157 15.26 51.1157C15.26 51.1157 15.0158 51.2343 14.7717 51.5901C14.5275 51.8273 14.0392 52.1831 13.673 52.6574C13.3068 53.1318 12.8184 53.6062 12.4522 54.1992C12.2081 54.4364 12.086 54.7922 11.9639 55.0294C11.8418 55.2666 11.7197 55.6224 11.5977 55.8596C11.4756 56.0968 11.4756 56.4526 11.4756 56.6898C11.4756 56.8084 11.4756 56.927 11.4756 57.0456C11.4756 57.1641 11.4756 57.1641 11.4756 57.2827C11.2314 57.2827 11.2314 57.2827 11.2314 57.4013Z" fill="#0227AB"/>
<path d="M3.17402 48.7437C3.41818 48.8623 3.66233 49.0995 3.90649 49.2181C4.3948 49.4553 4.88311 49.5739 5.37142 49.6925C6.34804 49.9297 6.95843 49.8111 6.95843 49.8111C6.95843 49.8111 7.08051 49.3367 6.83635 48.6251C6.83635 48.3879 6.71427 48.2693 6.71427 48.0321C6.5922 47.7949 6.5922 47.5577 6.47012 47.4391C6.34804 47.2019 6.22596 46.9647 6.10389 46.7275C5.98181 46.6089 5.98181 46.4903 5.85973 46.3717L5.61557 46.1345C4.76103 45.1858 3.2961 44.237 2.1974 43.5254C1.58701 43.1696 1.0987 42.8138 0.732466 42.5766C0.244155 42.2208 0 42.1022 0 42.1022C0 42.1022 0 42.3394 0.122078 42.8138C0.244155 43.2882 0.366233 43.7626 0.488311 44.4742C0.610389 45.0672 0.976622 45.7788 1.22078 46.3717C1.34285 46.4903 1.34285 46.7275 1.46493 46.8461C1.58701 46.9647 1.70909 47.2019 1.70909 47.3205C1.95324 47.6763 2.1974 47.9135 2.31948 48.1507C2.68571 48.3879 2.92986 48.6251 3.17402 48.7437Z" fill="#0227AB"/>
<path d="M8.66774 49.5739C8.66774 49.5739 9.27812 49.3367 10.0106 48.9809C10.3768 48.7437 10.8651 48.5065 11.2314 48.1507C11.4755 48.0321 11.5976 47.7949 11.8418 47.5577C12.0859 47.3205 12.208 47.0833 12.3301 46.8461C12.4521 46.6089 12.5742 46.3717 12.8184 46.1345C12.9405 45.8974 13.0625 45.6602 13.1846 45.3044C13.4288 44.7114 13.5508 44.237 13.6729 43.7626C13.795 43.2882 13.9171 42.8138 13.9171 42.5766C13.9171 42.2208 13.9171 42.1022 13.9171 42.1022C13.9171 42.1022 13.6729 42.2208 13.3067 42.3394C12.9405 42.5766 12.4521 42.8138 11.9638 43.1696C11.4755 43.5254 10.8651 43.8812 10.3768 44.3556C9.88851 44.83 9.4002 45.3044 9.03397 45.7788C8.66774 45.8973 8.54566 46.2531 8.54566 46.4903C8.42358 46.7275 8.42358 46.9647 8.3015 47.2019C8.3015 47.4391 8.17943 47.6763 8.17943 47.9135C8.17943 48.1507 8.17943 48.2693 8.17943 48.5065C8.42358 49.0995 8.66774 49.5739 8.66774 49.5739Z" fill="#0227AB"/>
<path d="M1.83141 33.2066C1.83141 33.4438 1.95349 33.7995 1.95349 34.0367C2.07557 34.6297 2.19765 35.1041 2.4418 35.5785C2.80804 36.1715 3.17427 36.6459 3.5405 37.0017C3.90674 37.3575 4.39505 37.5947 4.76128 37.8319C5.61582 38.1876 6.22621 38.3062 6.22621 38.3062C6.22621 38.3062 6.22621 38.1876 6.34829 37.9505C6.34829 37.7133 6.47037 37.4761 6.47037 37.1203C6.47037 36.7645 6.47037 36.2901 6.34829 35.8157C6.22621 35.3413 6.10413 34.8669 5.85998 34.2739C5.7379 34.0367 5.61582 33.9181 5.49375 33.6809C5.37167 33.5623 5.37167 33.4438 5.24959 33.4438C5.12751 33.3252 5.12751 33.2066 5.00543 33.2066C4.6392 32.7322 4.27297 32.2578 3.90674 31.7834C3.5405 31.309 3.17427 30.8346 2.80804 30.4788C2.19765 29.6486 1.70934 29.1742 1.70934 29.1742C1.70934 29.1742 1.58726 29.53 1.58726 30.2416C1.58726 30.5974 1.46518 30.9532 1.46518 31.309C1.46518 31.6648 1.46518 32.1392 1.46518 32.6136C1.70934 32.6136 1.83141 32.9694 1.83141 33.2066Z" fill="#0227AB"/>
<path d="M12.4521 36.7659C12.5742 36.6473 12.5742 36.6473 12.6963 36.5288C12.8184 36.4102 12.8184 36.4102 12.9405 36.2916C13.0625 36.173 13.1846 35.9358 13.4288 35.8172C13.5508 35.6986 13.6729 35.4614 13.795 35.3428C13.9171 35.1056 14.0392 34.987 14.1612 34.8684C14.4054 34.6312 14.5275 34.2754 14.6495 34.0382C14.7716 33.9196 14.7716 33.801 14.8937 33.6824C14.8937 33.5638 15.0158 33.4452 15.1379 33.3266C15.382 32.8522 15.5041 32.615 15.5041 32.615C15.5041 32.615 14.7716 32.7336 13.795 32.9708C13.5508 33.0894 13.3067 33.0894 13.0625 33.208C12.8184 33.3266 12.5742 33.3266 12.208 33.4452C11.7197 33.6824 11.1093 33.9196 10.621 34.1568C10.2547 34.394 9.88851 34.6312 9.52228 34.8684C9.03397 35.2242 8.66774 35.6986 8.54566 36.0544C8.3015 36.5288 8.17943 36.8845 8.17943 37.2403C8.17943 37.5961 8.17943 37.8333 8.17943 38.0705C8.17943 38.3077 8.3015 38.4263 8.3015 38.4263C8.3015 38.4263 8.91189 38.4263 9.76643 38.1891C10.3768 37.9519 11.5976 37.4775 12.4521 36.7659Z" fill="#0227AB"/>
<path d="M6.95844 25.0254C7.20259 25.4998 7.56883 25.8556 7.93506 26.2114C8.54545 26.8044 9.15584 27.0416 9.15584 27.0416C9.15584 27.0416 9.27791 26.923 9.39999 26.8044C9.52207 26.5672 9.64415 26.33 9.76622 25.9742C9.8883 25.6184 10.0104 25.2626 10.1325 24.7882C10.1325 24.551 10.1325 24.3138 10.1325 23.9581C10.1325 23.7209 10.1325 23.3651 10.0104 23.1279C10.0104 22.7721 9.8883 22.5349 9.76622 22.1791C9.76622 22.0605 9.64415 21.8233 9.64415 21.7047C9.64415 21.5861 9.52207 21.3489 9.52207 21.2303C9.27791 20.5187 9.03376 19.9257 8.66753 19.2142C8.54545 18.8584 8.42337 18.6212 8.30129 18.384C8.17921 18.1468 8.05714 17.9096 7.93506 17.6724C7.81298 17.3166 7.6909 17.0794 7.6909 17.0794C7.6909 17.0794 7.56883 17.3166 7.32467 17.6724C7.32467 17.791 7.20259 18.0282 7.08051 18.2654C6.95844 18.5026 6.83636 18.8584 6.71428 19.0956C6.71428 19.2142 6.5922 19.4513 6.5922 19.5699C6.5922 19.6885 6.47013 19.9257 6.47013 20.0443C6.34805 20.4001 6.34805 20.7559 6.22597 21.1117C6.22597 21.4675 6.10389 21.8233 6.10389 22.1791C6.10389 22.5349 6.10389 22.8907 6.22597 23.2465C6.47013 24.0766 6.71428 24.551 6.95844 25.0254Z" fill="#0227AB"/>
<path d="M16.2362 26.8034C16.4804 26.6848 16.7245 26.4476 16.9687 26.329C17.2128 26.0918 17.457 25.9732 17.5791 25.736C17.8232 25.4988 17.9453 25.3802 18.1894 25.143C18.4336 24.9058 18.5557 24.7872 18.6778 24.6686C18.7998 24.55 18.7998 24.55 18.9219 24.4314C19.044 24.3129 19.044 24.3129 19.044 24.1943C19.2881 23.9571 19.4102 23.8385 19.4102 23.8385C19.4102 23.8385 19.1661 23.8385 18.7998 23.8385C18.4336 23.8385 17.8232 23.8385 17.2128 23.8385C16.6024 23.8385 15.87 23.9571 15.1375 24.0757C15.0154 24.0757 14.7713 24.1943 14.6492 24.1943C14.5271 24.1943 14.283 24.3129 14.1609 24.3129C13.7946 24.4315 13.5505 24.55 13.1843 24.6686C12.9401 24.7872 12.6959 24.9058 12.4518 25.143C12.2076 25.2616 12.0856 25.4988 11.8414 25.6174C11.4752 25.9732 11.231 26.329 11.1089 26.6848C10.9869 26.8034 10.8648 27.1592 10.8648 27.2778C10.8648 27.515 10.8648 27.6336 10.8648 27.6336C10.8648 27.6336 11.4752 27.7522 12.3297 27.7522C12.818 27.7522 13.3063 27.7522 13.7946 27.6336C14.283 27.515 14.8933 27.3964 15.5037 27.1592C15.7479 27.0406 15.992 26.922 16.2362 26.8034Z" fill="#0227AB"/>
<path d="M13.4283 14.9415C13.5504 15.4159 13.7945 15.8903 14.0387 16.2461C14.527 16.9576 15.0153 17.432 15.0153 17.432C15.0153 17.432 15.5036 17.1948 15.9919 16.6018C16.114 16.4832 16.2361 16.2461 16.3582 16.1275C16.4802 15.8903 16.6023 15.7717 16.7244 15.5345C16.9685 15.0601 17.0906 14.5857 17.0906 13.8741C17.2127 13.2811 17.0906 12.5695 17.0906 11.858C17.0906 11.1464 16.9685 10.4348 16.8465 9.7232C16.7244 9.13021 16.7244 8.53722 16.6023 8.06283C16.4802 7.70704 16.4802 7.35125 16.4802 7.35125C16.4802 7.35125 16.4802 7.35125 16.3582 7.46985C16.2361 7.58844 16.114 7.70704 15.9919 7.82564C15.7478 8.18143 15.3815 8.65582 14.8932 9.13021C14.527 9.7232 14.1608 10.3162 13.7945 11.0278C13.5504 11.7394 13.3062 12.4509 13.1841 13.0439C13.1841 13.1625 13.1841 13.3997 13.1841 13.5183C13.1841 13.6369 13.1841 13.8741 13.1841 13.9927C13.3062 14.3485 13.3062 14.7043 13.4283 14.9415Z" fill="#0227AB"/>
<path d="M21.852 18.9765C21.9741 18.9765 22.0962 18.8579 22.3403 18.8579C22.4624 18.8579 22.4624 18.8579 22.5845 18.7393C22.7066 18.7393 22.7066 18.7393 22.8286 18.6207C23.439 18.3835 23.9273 18.1463 24.4156 17.9091C24.904 17.672 25.2702 17.4348 25.5143 17.3162C25.6364 17.1976 25.7585 17.1976 25.8806 17.079C26.0027 17.079 26.0027 16.9604 26.0027 16.9604C26.0027 16.9604 26.0027 16.9604 25.8806 16.8418C25.7585 16.8418 25.6364 16.7232 25.3923 16.7232C25.026 16.6046 24.4156 16.486 23.8053 16.2488C23.439 16.1302 23.1949 16.1302 22.8286 16.0116C22.7066 16.0116 22.4624 16.0116 22.3403 15.893C22.2182 15.893 21.9741 15.893 21.852 15.893C21.1195 15.893 20.3871 15.893 19.7767 15.893C19.1663 16.0116 18.678 16.2488 18.1897 16.486C17.9455 16.6046 17.8234 16.7232 17.5793 16.8418C17.4572 16.9604 17.3351 17.079 17.2131 17.3162C16.7248 17.9091 16.6027 18.3835 16.6027 18.3835C16.6027 18.3835 17.2131 18.7393 18.0676 18.8579C18.5559 18.9765 19.0442 19.0951 19.5325 19.0951C20.0208 19.0951 20.6312 19.0951 21.2416 19.0951C21.2416 19.0951 21.4858 18.9765 21.852 18.9765Z" fill="#0227AB"/>
<path d="M23.4386 8.89481C23.5607 9.132 23.6827 9.2506 23.6827 9.2506C23.6827 9.2506 23.6827 9.2506 23.8048 9.2506C23.8048 9.2506 23.9269 9.2506 24.049 9.132C24.2931 9.0134 24.5373 8.89481 24.9035 8.65761C25.5139 8.18322 26.2464 7.47164 26.7347 6.28566C26.8567 5.92987 26.9788 5.57408 27.1009 5.09969C27.223 4.5067 27.3451 3.91372 27.4671 3.32073C27.5892 2.72774 27.7113 2.13475 27.8334 1.66036C27.9554 0.711585 28.0775 0 28.0775 0C28.0775 0 27.7113 0.237195 27.223 0.592987C26.8567 0.711585 26.6126 0.948779 26.2464 1.18597C25.8801 1.42317 25.636 1.77896 25.2697 2.01616C25.0256 2.25335 24.9035 2.37195 24.6593 2.60914L24.4152 2.84634C24.2931 2.96494 24.2931 3.08353 24.171 3.20213C23.8048 3.67652 23.5607 4.15091 23.3165 4.6253C23.1944 4.98109 23.0723 5.21829 23.0723 5.57408C23.0723 5.81127 22.9503 6.16707 22.9503 6.40426C22.9503 6.99725 23.0723 7.47164 23.0723 7.82743C23.1944 8.30182 23.3165 8.65761 23.4386 8.89481Z" fill="#0227AB"/>
<path d="M31.6178 12.3345C31.984 12.2159 32.3503 12.2159 32.5944 12.0973C32.9606 11.9787 33.2048 11.9787 33.449 11.8601C33.9373 11.7416 34.1814 11.623 34.1814 11.623C34.1814 11.623 33.6931 11.1486 32.8386 10.6742C32.4723 10.437 31.984 10.1998 31.3736 9.96259C30.8853 9.72539 30.2749 9.4882 29.6645 9.3696C29.1762 9.25101 28.81 9.13241 28.4438 9.13241C27.223 9.01381 26.2464 9.3696 25.636 9.84399C25.2698 10.0812 25.1477 10.1998 24.9035 10.437C24.7814 10.5556 24.7814 10.5556 24.7814 10.6742V10.7928C24.7814 10.7928 24.9035 10.9114 25.1477 11.03C25.3918 11.1486 25.636 11.3858 26.0022 11.623C26.3685 11.8601 26.8568 12.0973 27.3451 12.2159C27.5892 12.3345 27.8334 12.4531 28.1996 12.4531C28.4438 12.5717 28.81 12.5717 29.0542 12.5717C29.7866 12.5717 30.7632 12.4531 31.6178 12.3345Z" fill="#0227AB"/>
<path d="M44.6802 81.5962C44.436 81.5962 44.1919 81.4776 43.8256 81.4776C43.7036 81.4776 43.4594 81.4776 43.3373 81.359C43.0932 81.359 42.9711 81.2404 42.7269 81.2404C42.3607 81.1218 41.8724 81.1218 41.3841 81.0032C40.8958 80.8846 40.4075 80.766 39.9191 80.6474C39.675 80.6474 39.4308 80.5288 39.1867 80.5288C38.9425 80.4102 38.6984 80.4102 38.4542 80.2916C37.9659 80.173 37.3555 80.0544 36.8672 79.8173C34.6698 79.2243 32.7166 78.3941 31.1296 77.6825C30.7633 77.4453 30.3971 77.3267 30.1529 77.2081C30.0309 77.0895 29.9088 77.0895 29.7867 76.9709C29.6646 76.8523 29.5425 76.8523 29.4205 76.7337C29.0542 76.4965 28.8101 76.3779 28.8101 76.3779C28.8101 76.3779 28.5659 76.2593 28.1997 76.0221C27.8335 75.7849 27.2231 75.4292 26.4906 74.9548C25.1477 74.1246 23.3166 72.82 21.6075 71.3968C19.8984 69.9737 18.4335 68.4319 17.3348 67.2459C17.2127 67.1273 17.0906 67.0087 16.9685 66.7715C16.8465 66.6529 16.7244 66.5343 16.6023 66.4157C16.3581 66.1785 16.2361 65.9414 16.114 65.8228C15.9919 65.7042 15.8698 65.467 15.7478 65.3484C15.6257 65.2298 15.6257 65.2298 15.6257 65.2298C15.6257 65.2298 15.5036 64.9926 15.1374 64.6368C15.0153 64.3996 14.7711 64.281 14.6491 63.9252C14.4049 63.688 14.2828 63.3322 14.0387 62.9764C13.9166 62.8578 13.7945 62.6206 13.6724 62.502C13.5504 62.2648 13.4283 62.1462 13.3062 61.909C13.062 61.5533 12.8179 61.0789 12.5737 60.7231C12.3296 60.2487 12.0854 59.8929 11.8413 59.4185C11.7192 59.2999 11.7192 59.1813 11.5971 59.0627C11.5971 58.9441 11.475 58.8255 11.475 58.7069C11.353 58.4697 11.2309 58.2325 11.1088 57.9953C10.2543 56.0978 9.39972 54.0816 9.03349 52.5398C9.03349 52.3027 8.91141 52.1841 8.91141 51.9469C8.91141 51.8283 8.78933 51.5911 8.78933 51.4725C8.66725 51.1167 8.66725 50.8795 8.54517 50.6423C8.4231 50.1679 8.4231 49.9307 8.4231 49.9307C8.4231 49.9307 8.4231 49.8121 8.4231 49.6935C8.4231 49.5749 8.4231 49.3377 8.30102 49.2191C8.30102 48.9819 8.17894 48.7447 8.17894 48.3889C8.17894 48.0331 8.05686 47.6774 7.93479 47.3216C7.93479 46.9658 7.81271 46.4914 7.81271 46.017C7.81271 45.8984 7.81271 45.7798 7.81271 45.6612C7.81271 45.5426 7.81271 45.424 7.81271 45.3054C7.81271 45.0682 7.81271 44.831 7.81271 44.5938C7.69063 43.645 7.69063 42.5777 7.69063 41.5103C7.69063 40.4429 7.69063 39.3755 7.81271 38.4268C7.81271 38.1896 7.81271 37.9524 7.81271 37.7152C7.81271 37.5966 7.81271 37.478 7.81271 37.3594C7.81271 37.2408 7.81271 37.1222 7.81271 37.0036C7.81271 36.5292 7.93479 36.1734 7.93479 35.699C7.93479 35.3432 8.05686 34.9874 8.17894 34.6316C8.17894 34.2758 8.30102 34.0387 8.30102 33.8015C8.30102 33.5643 8.4231 33.4457 8.4231 33.3271C8.4231 33.2085 8.4231 33.0899 8.4231 33.0899C8.4231 33.0899 8.54517 32.8527 8.54517 32.3783C8.54517 32.1411 8.66725 31.9039 8.78933 31.5481C8.4231 32.0225 8.54517 31.7853 8.54517 31.6667C8.54517 31.5481 8.66725 31.3109 8.66725 31.0737C9.15556 29.532 9.88803 27.6344 10.7426 25.6182C10.8647 25.381 10.9867 25.1438 11.1088 24.9067C11.1088 24.7881 11.2309 24.6695 11.2309 24.5509C11.353 24.4323 11.353 24.3137 11.475 24.1951C11.7192 23.7207 11.9634 23.2463 12.2075 22.8905C12.4517 22.4161 12.6958 22.0603 12.94 21.7045C13.0621 21.4673 13.1841 21.3487 13.3062 21.1115C13.4283 20.8743 13.5504 20.7557 13.6724 20.6371C13.9166 20.2813 14.1607 20.0442 14.2828 19.6884C14.527 19.4512 14.6491 19.214 14.7711 18.9768C15.0153 18.621 15.2594 18.3838 15.2594 18.3838C15.2594 18.3838 15.2594 18.3838 15.3815 18.2652C15.5036 18.1466 15.5036 18.028 15.7478 17.7908C15.8698 17.5536 16.114 17.435 16.2361 17.1978C16.3581 17.0792 16.4802 16.9606 16.6023 16.842C16.7244 16.7234 16.8465 16.6048 16.9685 16.3676C18.0672 15.1817 19.5322 13.6399 21.2413 12.2167C22.9503 10.7936 24.6594 9.60758 26.1244 8.6588C26.8568 8.30301 27.4672 7.94722 27.8335 7.71002C28.3218 7.47283 28.4438 7.35423 28.4438 7.35423C28.4438 7.35423 28.688 7.23564 29.0542 6.99844C29.1763 6.99844 29.2984 6.87984 29.4205 6.76125C29.5425 6.64265 29.6646 6.64265 29.7867 6.52405C29.9088 6.52405 30.0309 6.40545 30.1529 6.40545C30.3971 6.40545 30.7633 6.40545 31.2516 6.40545C32.1062 6.40545 33.3269 6.16826 34.3036 5.69387C34.7919 5.45667 35.2802 5.10088 35.7685 4.62649C36.0127 4.3893 36.2568 4.2707 36.3789 4.0335C36.623 3.79631 36.7451 3.67771 36.9893 3.44052C37.3555 3.08473 37.5997 2.72893 37.8438 2.49174C38.088 2.25454 38.2101 2.13595 38.2101 2.13595C38.2101 2.13595 37.9659 2.13595 37.5997 2.13595C37.2334 2.13595 36.623 2.13595 36.0127 2.13595C35.8906 2.13595 35.6464 2.13595 35.5243 2.13595C35.4023 2.13595 35.1581 2.13595 35.036 2.25454C34.6698 2.25454 34.3036 2.37314 33.9373 2.49174C33.2049 2.61034 32.5945 2.84753 31.9841 3.20332C31.4958 3.44052 31.0075 3.79631 30.6412 4.1521C30.275 4.50789 30.1529 4.86369 30.0308 5.21948C29.9088 5.57527 29.7867 5.81247 29.7867 6.04966V6.16826H29.6646C29.5425 6.28686 29.4205 6.28686 29.1763 6.40545C29.0542 6.52405 28.9321 6.52405 28.8101 6.64265C28.4438 6.87984 28.1997 6.99844 28.1997 6.99844C28.1997 6.99844 28.0776 7.11704 27.5893 7.35423C27.2231 7.59143 26.6127 7.94722 25.8802 8.42161C24.5374 9.37039 22.7062 10.5564 20.9971 11.9795C19.288 13.4027 17.8231 14.9445 16.7244 16.1304C16.6023 16.249 16.4802 16.4862 16.3581 16.6048C16.2361 16.7234 16.114 16.842 15.9919 16.9606C15.7478 17.1978 15.6257 17.435 15.3815 17.6722C15.2594 17.9094 15.1374 18.028 15.0153 18.1466C14.8932 18.2652 14.8932 18.2652 14.8932 18.2652C14.8932 18.2652 14.7711 18.5024 14.4049 18.8582C14.2828 19.0954 14.0387 19.3326 13.9166 19.5698C13.6724 19.807 13.5504 20.1628 13.3062 20.5185C13.1841 20.6371 13.0621 20.8743 12.94 20.9929C12.8179 21.2301 12.6958 21.3487 12.5737 21.5859C12.3296 21.9417 12.0854 22.4161 11.8413 22.7719C11.5971 23.2463 11.353 23.7207 11.1088 24.0765C11.1088 24.1951 10.9867 24.3137 10.9867 24.4323C10.9867 24.5509 10.8647 24.6695 10.8647 24.7881C10.7426 25.0252 10.6205 25.2624 10.4984 25.4996C9.5218 27.3972 8.78933 29.4134 8.4231 30.9551C8.4231 31.1923 8.30102 31.3109 8.30102 31.5481C8.30102 31.6667 8.17894 31.9039 8.17894 32.0225C8.05686 32.3783 8.05686 32.6155 7.93479 32.8527C7.81271 33.3271 7.81271 33.5643 7.81271 33.5643C7.81271 33.5643 7.81271 33.6829 7.81271 33.8015C7.81271 33.9201 7.81271 34.1572 7.69063 34.2758C7.69063 34.513 7.56855 34.7502 7.56855 35.106C7.56855 35.4618 7.44648 35.8176 7.3244 36.1734C7.3244 36.5292 7.20232 37.0036 7.20232 37.478C7.20232 37.5966 7.20232 37.7152 7.20232 37.8338C7.20232 37.9524 7.20232 38.071 7.20232 38.1896C7.20232 38.4268 7.20232 38.664 7.20232 38.9011C7.08024 39.8499 7.08024 40.9173 7.08024 41.9847C7.08024 43.0521 7.08024 44.1194 7.20232 45.0682C7.20232 45.3054 7.20232 45.5426 7.20232 45.7798C7.20232 45.8984 7.20232 46.017 7.20232 46.1356C7.20232 46.2542 7.20232 46.3728 7.20232 46.4914C7.20232 46.9658 7.3244 47.3216 7.3244 47.796C7.3244 48.1517 7.44648 48.5075 7.56855 48.8633C7.56855 49.2191 7.69063 49.4563 7.69063 49.6935C7.69063 49.9307 7.81271 50.0493 7.81271 50.1679C7.81271 50.2865 7.81271 50.4051 7.81271 50.4051C7.81271 50.4051 7.93479 50.6423 7.93479 51.1167C7.93479 51.3539 8.05686 51.5911 8.17894 51.9469C8.17894 52.0655 8.30102 52.3027 8.30102 52.4212C8.30102 52.5398 8.4231 52.777 8.4231 53.0142C8.91141 54.556 9.64387 56.5722 10.4984 58.4697C10.6205 58.7069 10.7426 58.9441 10.8647 59.1813C10.8647 59.2999 10.9867 59.4185 10.9867 59.5371C11.1088 59.6557 11.1088 59.7743 11.2309 59.8929C11.475 60.3673 11.7192 60.8417 11.9634 61.1975C12.2075 61.6718 12.4517 62.0276 12.6958 62.3834C12.8179 62.6206 12.94 62.7392 13.062 62.9764C13.1841 63.2136 13.3062 63.3322 13.4283 63.4508C13.6724 63.8066 13.9166 64.0438 14.0387 64.3996C14.2828 64.6368 14.4049 64.874 14.527 65.1112C14.7711 65.467 15.0153 65.7042 15.0153 65.7042C15.0153 65.7042 15.0153 65.7042 15.1374 65.8228C15.2594 65.9414 15.3815 66.06 15.5036 66.2971C15.6257 66.5343 15.8698 66.6529 16.114 67.0087C16.2361 67.1273 16.3581 67.2459 16.4802 67.3645C16.6023 67.4831 16.7244 67.6017 16.8465 67.8389C17.9452 69.0249 19.5322 70.5667 21.1192 71.9898C22.8283 73.413 24.6594 74.7176 26.0023 75.5478C26.7348 76.0221 27.3451 76.3779 27.7114 76.6151C28.1997 76.8523 28.4438 76.9709 28.4438 76.9709C28.4438 76.9709 28.688 77.0895 29.0542 77.3267C29.1763 77.3267 29.2984 77.4453 29.4205 77.5639C29.5425 77.6825 29.6646 77.6825 29.9088 77.8011C30.275 77.9197 30.5192 78.1569 30.8854 78.2755C32.3503 78.9871 34.4257 79.8173 36.6231 80.4102C37.1114 80.6474 37.7217 80.766 38.2101 80.8846C38.4542 81.0032 38.6984 81.0032 39.0646 81.1218C39.3088 81.2404 39.5529 81.2404 39.7971 81.2404C40.2854 81.359 40.7737 81.4776 41.262 81.5962C41.7503 81.7148 42.2386 81.7148 42.6049 81.8334C42.849 81.8334 42.9711 81.952 43.2152 81.952C43.4594 81.952 43.5815 81.952 43.7036 82.0706C44.0698 82.0706 44.3139 82.1892 44.5581 82.1892C45.0464 82.1892 45.2906 82.3078 45.2906 82.3078V81.952C45.4126 81.7148 45.1685 81.5962 44.6802 81.5962Z" fill="#0227AB"/>
<path d="M39.7971 81.2404C39.7971 81.2404 45.6571 82.6631 47 88L46.8779 81.8329L40.2857 80.8842L39.7971 81.2404Z" fill="#0227AB"/>
</svg>
