<svg width="52" height="52" viewBox="0 0 52 52" fill="none" xmlns="http://www.w3.org/2000/svg">
<g clip-path="url(#clip0)">
<path d="M51.9136 31.7081L51.9214 31.7055L43.384 13.0775L45.4544 12.0471L44.6796 10.4958L42.6612 11.5011L42.3882 10.9057C42.1886 10.4706 41.6743 10.2796 41.2392 10.4791C41.0505 10.5656 40.8992 10.717 40.8126 10.9057L40.5691 11.4378C39.1001 10.7555 37.5001 10.4015 35.8804 10.4004H28.6005V8.6671H30.3338V6.93379H28.844L29.4672 4.44041C29.9456 2.52585 28.7814 0.585938 26.8669 0.107434C24.9523 -0.370962 23.0124 0.793178 22.5339 2.70774C22.3918 3.27648 22.3918 3.87155 22.5339 4.4403L23.157 6.93368H21.6672V8.667H23.4005V10.4003H16.1249C14.5036 10.4016 12.9021 10.7565 11.432 11.4403L11.1885 10.9082C10.989 10.4731 10.4745 10.2821 10.0395 10.4816C9.85076 10.5681 9.69942 10.7195 9.61286 10.9082L9.33987 11.5036L7.32142 10.4939L6.54662 12.047L8.61707 13.0818L0.07961 31.7055C0.0269604 31.8187 9.39458e-05 31.9421 0.00074394 32.0669C0.00453558 35.4158 2.71848 38.1297 6.06736 38.1335H14.734C18.0828 38.1297 20.7968 35.4158 20.8006 32.0669C20.7984 31.9424 20.7688 31.8199 20.7139 31.7081L12.153 13.0099C13.3975 12.4323 14.753 12.1333 16.1249 12.1337H23.4005V43.8413L20.4418 46.8001H17.3339C14.942 46.8029 13.0035 48.7414 13.0006 51.1334C13.0006 51.612 13.3887 52.0001 13.8673 52.0001H38.1338C38.6124 52.0001 39.0004 51.612 39.0004 51.1334C38.9976 48.7414 37.0591 46.8029 34.6671 46.8001H31.5593L28.6005 43.8413V12.1337H35.8804C37.2524 12.1333 38.6079 12.4323 39.8523 13.0099L31.2794 31.7055C31.2267 31.8187 31.1998 31.9421 31.2005 32.0669C31.2043 35.4158 33.9182 38.1297 37.2671 38.1335H45.9337C49.2826 38.1297 51.9965 35.4158 52.0003 32.0669C51.9983 31.9424 51.9687 31.8199 51.9136 31.7081ZM14.734 36.4002H6.06736C4.00883 36.3979 2.2351 34.95 1.82073 32.9336H18.9806C18.5663 34.95 16.7925 36.3979 14.734 36.4002ZM18.5837 31.2003H2.21766L10.1788 13.8315C10.3242 13.8705 10.4771 13.8705 10.6225 13.8315L18.5837 31.2003ZM24.5506 2.44102C25.2255 1.64023 26.4218 1.53829 27.2226 2.2132C27.3049 2.28253 27.3811 2.3588 27.4504 2.44102C27.801 2.88692 27.9248 3.47018 27.7858 4.02008L27.057 6.93379H24.9441L24.2152 4.02008C24.0762 3.47018 24.2002 2.88692 24.5506 2.44102ZM25.1339 10.4004V8.6671H26.8672V10.4004H25.1339ZM26.8672 12.1337V43.3335H25.1339V12.1337H26.8672ZM34.6671 48.5334C35.7687 48.5347 36.7502 49.2287 37.1189 50.2668H14.8822C15.2508 49.2287 16.2324 48.5347 17.3339 48.5334H34.6671ZM29.1084 46.8001H22.8927L24.626 45.0668H27.375L29.1084 46.8001ZM41.3768 13.8341C41.5199 13.8845 41.6769 13.878 41.8153 13.8159L49.7834 31.2003H33.4174L41.3768 13.8341ZM45.9337 36.4002H37.2671C35.2086 36.3979 33.4348 34.95 33.0205 32.9336H50.1803C49.7661 34.95 47.9922 36.3979 45.9337 36.4002Z" fill="#0227AB"/>
</g>
<defs>
<clipPath id="clip0">
<rect width="52" height="52" fill="white"/>
</clipPath>
</defs>
</svg>
