<svg width="52" height="52" viewBox="0 0 52 52" fill="none" xmlns="http://www.w3.org/2000/svg">
<path d="M26 39.2031C25.4394 39.2031 24.9844 39.6581 24.9844 40.2188C24.9844 40.7794 25.4394 41.2344 26 41.2344C26.5606 41.2344 27.0156 40.7794 27.0156 40.2188C27.0156 39.6581 26.5606 39.2031 26 39.2031Z" fill="#0227AB"/>
<path d="M47.6416 6.23289C45.1424 5.2263 41.893 4.67188 38.4922 4.67188C35.0914 4.67188 31.842 5.2263 29.3427 6.23289C27.8658 6.82774 26.7382 7.55473 26 8.37048C25.2618 7.55473 24.1342 6.82784 22.6573 6.23299C20.158 5.2263 16.9086 4.67188 13.5078 4.67188C10.107 4.67188 6.8576 5.2263 4.35835 6.23289C1.54781 7.36491 0 8.97467 0 10.7656V35.1406C0 36.9316 1.54781 38.5413 4.35835 39.6734C6.68281 40.6096 9.65636 41.1539 12.7969 41.2256V41.2344C12.7969 44.7084 18.473 47.3281 26 47.3281C33.527 47.3281 39.2031 44.7084 39.2031 41.2344V41.2256C42.3436 41.1539 45.3172 40.6096 47.6416 39.6734C50.4522 38.5413 52 36.9316 52 35.1406V10.7656C52 8.97467 50.4522 7.36491 47.6416 6.23289ZM49.9688 29.0469C49.9688 29.9139 48.7863 30.9287 46.8828 31.6954C44.8226 32.5252 42.0566 33.0272 39.2031 33.0993V29.0469C39.2031 29.0439 39.2029 29.041 39.2029 29.0381C42.3435 28.9665 45.3171 28.4222 47.6418 27.4859C48.5541 27.1184 49.3324 26.7004 49.9689 26.2423L49.9688 29.0469ZM24.9844 16.8594C24.9844 17.7264 23.8019 18.7412 21.8984 19.5079C19.6674 20.4065 16.6091 20.9219 13.5078 20.9219C10.4065 20.9219 7.34825 20.4065 5.11723 19.5079C3.21374 18.7412 2.03125 17.7264 2.03125 16.8594V14.0548C2.66774 14.5129 3.44602 14.9309 4.35835 15.2984C6.8576 16.3049 10.107 16.8594 13.5078 16.8594C16.9086 16.8594 20.158 16.3049 22.6573 15.2984C23.5696 14.9309 24.3479 14.5129 24.9844 14.0548V16.8594ZM4.35835 21.3921C6.8576 22.3987 10.107 22.9531 13.5078 22.9531C16.9086 22.9531 20.158 22.3987 22.6573 21.3921C23.5696 21.0247 24.3479 20.6066 24.9844 20.1486V22.9711C22.357 23.0601 19.8372 23.4913 17.7991 24.209C15.755 24.929 14.2841 25.8891 13.4841 27.0153C10.391 27.0127 7.34256 26.498 5.11723 25.6017C3.21374 24.835 2.03125 23.8202 2.03125 22.9531V20.1486C2.66774 20.6066 3.44602 21.0247 4.35835 21.3921ZM2.03125 26.2423C2.66774 26.7004 3.44602 27.1184 4.35835 27.4859C6.68291 28.4221 9.65656 28.9664 12.7972 29.0381C12.7972 29.0411 12.797 29.044 12.797 29.0469V33.0993C9.94337 33.0272 7.17752 32.5252 5.11733 31.6954C3.21374 30.9287 2.03125 29.9139 2.03125 29.0469V26.2423ZM14.9356 28.5479C15.6883 26.7963 20.0326 24.9844 26 24.9844C31.9674 24.9844 36.3117 26.7962 37.0636 28.5459C37.1365 28.7166 37.1719 28.8804 37.1719 29.0469C37.1719 29.9398 36.071 30.9317 34.2271 31.7C32.0459 32.6089 29.1242 33.1094 26 33.1094C22.8758 33.1094 19.9541 32.6089 17.7729 31.7C15.929 30.9317 14.8281 29.9398 14.8281 29.0469C14.8281 28.8804 14.8636 28.7166 14.9356 28.5479ZM49.9688 22.9531C49.9688 23.8202 48.7863 24.835 46.8828 25.6017C44.6575 26.498 41.6092 27.0127 38.5162 27.0153C37.7169 25.8897 36.2457 24.9292 34.2009 24.209C32.1628 23.4912 29.643 23.0601 27.0156 22.9711V20.1486C27.6521 20.6066 28.4304 21.0247 29.3427 21.3921C31.842 22.3987 35.0914 22.9531 38.4922 22.9531C41.893 22.9531 45.1424 22.3987 47.6416 21.3921C48.554 21.0247 49.3323 20.6066 49.9688 20.1486V22.9531ZM49.9688 16.8594C49.9688 17.7264 48.7863 18.7412 46.8828 19.5079C44.6517 20.4065 41.5935 20.9219 38.4922 20.9219C35.3909 20.9219 32.3326 20.4065 30.1016 19.5079C28.1981 18.7412 27.0156 17.7264 27.0156 16.8594V14.0548C27.6521 14.5129 28.4304 14.9309 29.3427 15.2984C31.842 16.3049 35.0914 16.8594 38.4922 16.8594C41.893 16.8594 45.1424 16.3049 47.6416 15.2984C48.554 14.9309 49.3323 14.5129 49.9688 14.0548V16.8594ZM30.1016 8.11708C32.3326 7.21845 35.3909 6.70312 38.4922 6.70312C41.5935 6.70312 44.6517 7.21845 46.8828 8.11708C48.7863 8.88377 49.9688 9.89859 49.9688 10.7656C49.9688 11.6327 48.7863 12.6475 46.8828 13.4142C44.6517 14.3128 41.5935 14.8281 38.4922 14.8281C35.3909 14.8281 32.3326 14.3128 30.1016 13.4142C28.1981 12.6475 27.0156 11.6327 27.0156 10.7656C27.0156 9.89859 28.1981 8.88377 30.1016 8.11708ZM5.11723 8.11708C7.34825 7.21845 10.4065 6.70312 13.5078 6.70312C16.6091 6.70312 19.6674 7.21845 21.8984 8.11708C23.8019 8.88377 24.9844 9.89859 24.9844 10.7656C24.9844 11.6327 23.8019 12.6475 21.8984 13.4142C19.6674 14.3128 16.6091 14.8281 13.5078 14.8281C10.4065 14.8281 7.34825 14.3128 5.11723 13.4142C3.21374 12.6475 2.03125 11.6327 2.03125 10.7656C2.03125 9.89859 3.21374 8.88377 5.11723 8.11708ZM5.11723 37.7892C3.21374 37.0225 2.03125 36.0077 2.03125 35.1406V32.3361C2.66774 32.7941 3.44602 33.2122 4.35835 33.5796C6.68281 34.5158 9.65636 35.0602 12.7969 35.1319V39.1932C9.94327 39.121 7.17742 38.619 5.11723 37.7892ZM34.2271 43.8875C32.0459 44.7964 29.1242 45.2969 26 45.2969C22.8758 45.2969 19.9541 44.7964 17.7729 43.8875C15.929 43.1192 14.8281 42.1273 14.8281 41.2344V38.489C15.0582 38.6555 15.3124 38.8209 15.5943 38.9841C17.1715 39.8967 19.3174 40.5718 21.8002 40.9362C21.8503 40.9435 21.8998 40.9471 21.949 40.9471C22.4446 40.9471 22.8784 40.5838 22.9525 40.0788C23.034 39.5239 22.6501 39.0079 22.0952 38.9265C17.3751 38.2335 14.8281 36.4588 14.8281 35.1406V32.3862C17.1269 34.0683 21.1846 35.1406 26 35.1406C30.8154 35.1406 34.8731 34.0683 37.1719 32.3862V35.1406C37.1719 36.4588 34.6249 38.2335 29.9048 38.9265C29.3498 39.0079 28.9659 39.5239 29.0475 40.0788C29.1216 40.5839 29.5554 40.9471 30.051 40.9471C30.1001 40.9471 30.1498 40.9435 30.1998 40.9362C32.6825 40.5718 34.8284 39.8968 36.4057 38.9841C36.6875 38.8209 36.9418 38.6555 37.1719 38.489V41.2344C37.1719 42.1273 36.071 43.1192 34.2271 43.8875ZM46.8828 37.7892C44.8226 38.6189 42.0566 39.121 39.2031 39.1931V35.1318C42.3436 35.0601 45.3172 34.5157 47.6416 33.5795C48.554 33.2121 49.3323 32.794 49.9688 32.336V35.1406C49.9688 36.0077 48.7863 37.0225 46.8828 37.7892Z" fill="#0227AB"/>
</svg>
