<svg width="52" height="52" viewBox="0 0 52 52" fill="none" xmlns="http://www.w3.org/2000/svg">
<g clip-path="url(#clip0)">
<path d="M51.6052 24.2683L42.0108 16.075C42.022 16.0189 42.0332 15.9629 42.0444 15.8956V5.18038C42.0332 4.5415 41.5288 4.02592 40.89 4.0035H35.5323C34.9159 4.0035 34.4115 4.55271 34.4115 5.18038V9.61892L26.7337 3.0732C26.319 2.71453 25.7026 2.71453 25.2766 3.0732L0.405157 24.2571C-0.0768051 24.6494 -0.132847 25.3555 0.259447 25.8375C0.651742 26.3195 1.35787 26.3755 1.83983 25.9832C1.85104 25.972 1.85104 25.972 1.86225 25.9608L26.0052 5.40455L34.6469 12.7685L39.8139 17.1622L50.1593 25.972C50.6301 26.3755 51.3362 26.3195 51.7397 25.8487C52.132 25.378 52.076 24.6718 51.6052 24.2683ZM39.7915 14.1807L36.6532 11.5356V6.25639H39.7915V14.1807Z" fill="#0227AB"/>
<path d="M46.6621 26.5324L43.5126 23.8424L26.7336 9.50679C26.3188 9.14813 25.7024 9.14813 25.2765 9.50679L8.49745 23.8424L5.34789 26.5324C4.87713 26.9359 4.82109 27.642 5.22459 28.1128C5.61689 28.5835 6.31181 28.6396 6.77136 28.2473L6.78256 28.2361L8.18362 27.0255V48.0413C8.19483 48.669 8.71041 49.1846 9.33808 49.1958H42.6607C43.2884 49.1846 43.804 48.6802 43.8152 48.0413V27.0255L45.2162 28.2361C45.418 28.4042 45.6646 28.5051 45.9336 28.5051C46.2586 28.5051 46.5724 28.3594 46.7854 28.1128C47.2001 27.6308 47.1329 26.9247 46.6621 26.5324ZM30.4884 46.9429H21.5216V34.8378H30.4884V46.9429ZM32.7301 46.9429V33.7506C32.7301 33.1341 32.2705 32.5961 31.654 32.5961H20.356C19.7395 32.5961 19.28 33.1341 19.28 33.7506V46.9429H10.4253V25.1089L26.005 11.8381L41.5847 25.1089V46.9429H32.7301Z" fill="#0227AB"/>
</g>
<defs>
<clipPath id="clip0">
<rect width="52" height="52" fill="white"/>
</clipPath>
</defs>
</svg>
