<svg width="430" height="462" viewBox="0 0 430 462" fill="none" xmlns="http://www.w3.org/2000/svg">
<g filter="url(#filter0_ddd)">
<path d="M10 0H420V392L215 436L10 392V0Z" fill="white"/>
</g>
<g clip-path="url(#clip0)">
<path d="M132.737 298.361H147.034V287.861C147.034 283.032 143.593 281.193 134.343 281.193C125.092 281.193 121.651 282.955 121.651 287.861V304.416C121.651 309.244 125.092 311.084 134.343 311.084C143.593 311.084 147.034 309.321 147.034 304.416V300.584H136.024V301.657C136.024 303.343 135.413 304.416 134.343 304.416C133.272 304.416 132.661 303.343 132.661 301.657V298.361H132.737ZM132.737 292.843V290.62C132.737 288.857 133.502 287.861 134.954 287.861C136.407 287.861 137.171 288.857 137.171 290.62V292.843H132.737ZM149.021 281.806V310.547H160.031V299.511H163.318V303.343C163.318 308.631 163.624 310.547 165.229 310.547H174.633C174.48 309.474 174.327 307.788 174.327 306.102V281.806H163.318V292.843H160.031V281.806H149.021ZM176.009 281.806V289.547H183.196V310.547H194.205V289.547H201.391V281.806H176.009ZM202.768 281.806V293.992C202.768 300.047 207.508 306.792 209.572 309.398C206.514 311.774 203.073 315.683 203.073 321.584H214.083C214.083 317.139 220.122 310.931 220.428 310.547C220.428 310.547 228.15 301.733 228.15 293.992V281.806H217.141V295.219C217.141 297.518 216.453 301.963 215.459 303.956C214.541 301.963 213.777 297.518 213.777 295.219V281.806H202.768ZM241.07 290.083C241.606 289.7 242.141 289.47 242.599 289.47C243.67 289.47 244.358 290.62 244.358 292.306V300.047C244.358 301.733 243.67 302.883 242.599 302.883C242.141 302.883 241.606 302.653 241.07 302.27V290.083ZM230.061 281.806V321.584H241.07V308.631C243.058 310.241 245.352 311.084 247.722 311.084C252.309 311.084 255.443 308.325 255.443 304.416V287.861C255.443 284.028 252.309 281.193 247.722 281.193C243.517 281.193 240 282.496 237.248 284.642L235.26 281.806H230.061ZM257.355 281.806V310.547H266.835L273.868 298.668V310.547H281.896C281.743 309.474 281.59 307.865 281.59 306.102V281.806H272.11L265.076 293.762V281.806H257.355ZM295.887 287.861C296.957 287.861 297.569 288.934 297.569 290.62V301.657C297.569 303.343 296.957 304.416 295.887 304.416C294.817 304.416 294.205 303.343 294.205 301.657V290.62C294.205 289.01 294.817 287.861 295.887 287.861ZM295.887 281.269C286.636 281.269 283.196 283.032 283.196 287.937V304.492C283.196 309.321 286.636 311.161 295.887 311.161C305.138 311.161 308.578 309.398 308.578 304.492V287.937C308.578 283.032 305.138 281.269 295.887 281.269ZM310.489 281.806V310.547H321.498V299.511H324.786V303.343C324.786 308.631 325.092 310.547 326.697 310.547H336.101C335.948 309.474 335.795 307.788 335.795 306.102V281.806H324.786V292.843H321.498V281.806H310.489ZM102.844 348.486C100.933 348.486 100.474 345.114 100.474 342.661C100.474 340.362 100.933 336.836 102.844 336.836C104.832 336.836 105.214 340.362 105.214 342.661C105.214 344.961 104.755 348.486 102.844 348.486ZM94.052 335.15V350.096H96.3456V343.351H98.1804C98.3333 348.18 100.398 350.326 102.768 350.326C104.908 350.326 107.508 348.41 107.508 342.585C107.508 337.373 105.443 334.844 102.92 334.844C100.703 334.844 98.6391 336.76 98.2569 341.358H96.3456V335.15H94.052ZM113.165 340.822C113.165 340.439 113.165 340.055 113.242 339.672C113.394 338.293 114.312 336.99 115.459 336.99C117.37 336.99 118.058 339.596 118.058 342.661C118.058 345.65 117.446 348.41 115.459 348.41C114.847 348.41 113.7 348.026 113.242 345.88C113.165 345.574 113.165 345.114 113.165 344.654V340.822ZM110.795 355.997H113.165V348.563H113.242C113.624 349.406 114.465 350.326 115.841 350.326C118.211 350.326 120.428 348.103 120.428 342.585C120.428 337.679 118.67 334.92 116.147 334.92C115 334.92 113.777 335.457 113.012 337.066H112.936L112.783 335.15H110.642C110.642 336.223 110.795 337.526 110.795 339.825V355.997ZM123.792 335.15V350.096H126.239C127.309 347.72 128.685 344.271 129.22 343.045C129.832 341.435 130.443 339.749 130.979 337.909H131.055C130.902 340.209 130.826 341.971 130.826 345.191V350.096H133.043V335.15H130.52L127.997 341.665C127.385 343.351 126.468 345.497 125.78 347.49H125.703C125.856 345.114 125.856 342.891 125.856 340.362V335.15H123.792ZM140.612 337.066H143.746V348.18H138.777C139.312 347.26 139.694 346.264 140 345.191C140.459 343.351 140.612 341.358 140.612 339.289V337.066ZM138.547 335.15V339.519C138.547 341.512 138.318 343.351 137.859 345.037C137.554 346.11 137.095 347.26 136.483 348.18H135.489L135.642 354.005H137.401L137.554 350.019H145.275L145.428 354.005H147.187L147.339 348.18H146.04V335.15H138.547ZM150.398 335.15V350.096H152.844C153.914 347.72 155.291 344.271 155.826 343.045C156.437 341.435 157.049 339.749 157.584 337.909H157.661C157.508 340.209 157.431 341.971 157.431 345.191V350.096H159.648V335.15H157.125L154.602 341.665C153.991 343.351 153.073 345.497 152.385 347.49H152.309C152.462 345.114 152.462 342.891 152.462 340.362V335.15H150.398ZM163.165 335.15V341.128C163.165 343.888 164.618 345.267 166.911 345.267C167.905 345.267 169.052 344.961 169.74 344.501H169.817V350.096H172.187V335.15H169.817V342.738C169.205 343.121 168.517 343.428 167.599 343.428C165.917 343.428 165.535 342.278 165.535 340.745V335.15H163.165ZM177.844 341.052C177.92 338.982 178.761 336.76 180.291 336.76C181.437 336.76 182.584 338.063 182.508 341.052H177.844ZM184.725 342.815C184.725 342.431 184.725 342.048 184.725 341.512C184.725 338.139 183.502 334.92 180.443 334.92C177.462 334.92 175.398 337.909 175.398 342.815C175.398 347.413 177.232 350.326 180.826 350.326C181.972 350.326 183.272 350.096 184.113 349.636L183.731 347.873C183.119 348.18 182.278 348.486 181.284 348.486C179.526 348.486 177.768 347.49 177.768 342.968H184.725V342.815ZM194.893 347.873C194.358 348.103 193.823 348.256 193.135 348.256C190.917 348.256 189.618 346.187 189.618 342.661C189.618 339.749 190.688 336.913 193.058 336.913C193.823 336.913 194.434 337.143 194.74 337.296L195.199 335.38C194.74 335.15 193.899 334.92 193.135 334.92C189.388 334.92 187.248 338.369 187.248 342.661C187.248 347.567 189.465 350.249 192.676 350.249C193.746 350.249 194.587 350.019 195.122 349.713L194.893 347.873ZM197.875 335.15V350.096H200.168V343.351H200.398C202.309 343.351 203.15 344.577 203.761 346.57C204.067 347.873 204.45 349.099 204.832 350.019H207.202C206.743 348.869 206.284 347.337 205.979 346.034C205.443 343.964 204.373 342.125 202.385 341.818L207.049 335.074H204.373L200.474 341.588H200.168V335.15H197.875ZM215.688 345.421C215.688 345.65 215.688 345.957 215.612 346.264C215.306 347.72 214.465 348.486 213.394 348.486C212.554 348.486 211.56 347.796 211.56 345.804C211.56 342.585 214.388 342.355 215.688 342.355V345.421ZM218.211 350.096C218.058 349.176 218.058 347.873 218.058 346.723V340.285C218.058 336.913 216.758 334.92 213.777 334.92C212.324 334.92 210.948 335.457 210.336 335.917L210.872 337.603C211.56 337.143 212.401 336.836 213.318 336.836C215.229 336.836 215.688 338.216 215.688 340.209V340.669C212.324 340.669 209.343 342.355 209.343 346.11C209.343 348.64 210.872 350.402 212.859 350.402C214.159 350.402 215.153 349.713 215.841 348.563H215.917L216.07 350.172H218.211V350.096ZM228.073 342.125H227.156C225.55 342.125 223.945 341.128 223.945 339.289C223.945 337.373 225.398 336.606 227.08 336.606C227.385 336.606 227.768 336.606 228.073 336.76V342.125ZM230.367 335.227C229.526 335.074 228.379 334.92 227.232 334.92C225.627 334.92 224.021 335.303 223.104 335.993C222.11 336.76 221.575 337.679 221.575 339.136C221.575 341.282 223.18 342.431 224.862 342.815V342.891C224.098 343.045 223.41 343.428 223.028 343.888C221.957 345.037 221.728 347.03 221.269 348.486C221.116 349.099 220.887 349.559 220.581 350.019H223.104C223.257 349.713 223.41 349.329 223.486 348.946C224.021 347.107 224.174 345.267 225.168 344.347C225.55 343.888 226.239 343.658 227.309 343.658H227.997V350.019H230.291V335.227H230.367ZM239.159 335.15V350.096H241.453V343.351H241.682C243.593 343.351 244.434 344.577 245.046 346.57C245.352 347.873 245.734 349.099 246.116 350.019H248.486C248.028 348.869 247.569 347.337 247.263 346.034C246.728 343.964 245.658 342.125 243.67 341.818L248.333 335.074H245.658L241.758 341.588H241.453V335.15H239.159ZM255.214 336.836C257.278 336.836 257.737 340.362 257.737 342.661C257.737 344.961 257.355 348.486 255.291 348.486C253.15 348.486 252.691 345.114 252.691 342.661C252.691 340.362 253.15 336.836 255.214 336.836ZM255.367 334.92C252.844 334.92 250.398 337.22 250.398 342.661C250.398 347.873 252.538 350.326 255.214 350.326C257.508 350.326 260.183 348.41 260.183 342.585C260.107 337.449 257.966 334.92 255.367 334.92ZM262.859 350.096H265.076L265.306 343.811C265.459 341.742 265.459 339.749 265.535 337.373H265.612C265.994 339.212 266.529 341.282 267.141 343.351L269.052 350.019H270.81L272.798 343.198C273.41 340.975 273.945 338.982 274.251 337.449H274.327C274.404 340.285 274.48 341.742 274.557 343.734L274.862 350.172H277.08L276.086 335.227H273.257L271.346 341.818C270.81 343.581 270.581 344.654 270.122 346.57H270.046C269.587 344.731 269.205 343.581 268.67 341.818L266.758 335.227H263.93L262.859 350.096ZM280.52 335.15V350.096H282.89V337.143H287.171V350.096H289.541V335.15H280.52ZM299.021 345.421C299.021 345.65 299.021 345.957 298.945 346.264C298.639 347.72 297.798 348.486 296.728 348.486C295.887 348.486 294.893 347.796 294.893 345.804C294.893 342.585 297.722 342.355 299.021 342.355V345.421ZM301.544 350.096C301.391 349.176 301.391 347.873 301.391 346.723V340.285C301.391 336.913 300.092 334.92 297.11 334.92C295.657 334.92 294.281 335.457 293.67 335.917L294.205 337.603C294.893 337.143 295.734 336.836 296.651 336.836C298.563 336.836 299.021 338.216 299.021 340.209V340.669C295.657 340.669 292.676 342.355 292.676 346.11C292.676 348.64 294.205 350.402 296.193 350.402C297.492 350.402 298.486 349.713 299.174 348.563H299.251L299.404 350.172H301.544V350.096ZM305.367 335.15V350.096H307.737V343.504H312.171V350.096H314.541V335.15H312.171V341.512H307.737V335.15H305.367ZM318.517 335.15V350.096H320.963C322.11 347.72 323.41 344.271 323.945 343.045C324.557 341.435 325.168 339.749 325.703 337.909H325.78C325.627 340.209 325.55 341.971 325.55 345.191V350.096H327.768V335.15H325.245L322.722 341.665C322.11 343.351 321.193 345.497 320.505 347.49H320.428C320.581 345.114 320.581 342.891 320.581 340.362V335.15H318.517ZM337.706 342.125H336.789C335.183 342.125 333.578 341.128 333.578 339.289C333.578 337.373 335.031 336.606 336.713 336.606C337.018 336.606 337.401 336.606 337.706 336.76V342.125ZM340 335.227C339.159 335.074 338.012 334.92 336.865 334.92C335.26 334.92 333.654 335.303 332.737 335.993C331.743 336.76 331.208 337.679 331.208 339.136C331.208 341.282 332.813 342.431 334.495 342.815V342.891C333.731 343.045 333.043 343.428 332.661 343.888C331.59 345.037 331.361 347.03 330.902 348.486C330.749 349.099 330.52 349.559 330.214 350.019H332.737C332.89 349.713 333.043 349.329 333.119 348.946C333.654 347.107 333.807 345.267 334.801 344.347C335.184 343.888 335.872 343.658 336.942 343.658H337.63V350.019H339.924V335.227H340ZM135.795 97.8597L128.838 101.232C125.856 151.664 134.572 187.917 147.416 213.899C148.563 210.45 149.939 207.231 151.697 204.395C141.147 181.249 134.266 149.671 136.865 106.75L143.823 103.378C143.823 103.301 143.746 103.301 143.746 103.225C141.835 100.925 137.936 98.7028 135.795 97.8597ZM273.486 206.924C251.162 254.214 213.777 264.254 213.777 264.254C213.777 264.254 204.908 261.878 193.287 254.214C187.936 255.057 182.737 255.134 179.908 255.44C197.875 270.539 214.235 275.904 214.235 275.904C214.235 275.904 254.297 265.097 279.144 215.049C277.232 212.06 275.398 209.3 273.486 206.924ZM297.875 101.232L276.086 90.5785C278.15 94.0275 279.832 97.8597 280.902 101.845C281.437 102.382 281.972 102.918 282.508 103.531L289.159 106.827C289.312 108.82 289.388 110.813 289.465 112.729C292.982 118.324 295.963 124.915 298.257 132.196C298.563 122.462 298.486 112.192 297.875 101.232ZM226.697 179.409C224.862 176.727 219.74 176.19 216.835 178.796C214.388 180.942 213.777 184.698 215.612 187.533L216.453 188.453C215.688 186.69 214.924 185.847 215.306 183.395C215.612 181.632 216.529 180.329 217.523 179.486C219.893 177.493 223.18 177.11 225.78 178.796C226.468 179.332 225.856 179.103 226.697 179.409ZM240.459 192.899C241.911 194.048 243.135 195.198 244.664 196.424C243.287 194.508 240.688 192.209 240.612 188.913C240.535 185.157 241.682 181.708 241.682 179.716C240.765 181.785 240 184.774 239.388 187.227C238.547 190.599 238.624 190.369 234.037 191.979C236.636 192.132 238.624 191.519 240.459 192.899ZM163.853 239.575C164.771 242.487 173.41 247.086 176.391 247.622C172.187 244.71 168.899 239.728 170.199 237.812C172.492 234.516 178.838 215.125 175.703 210.143C175.398 218.344 173.257 231.987 163.853 239.575ZM185.336 159.482C171.346 134.342 197.492 136.642 203.073 134.649C201.239 134.036 178.15 134.955 173.563 147.908C178.379 151.127 179.067 153.427 185.336 159.482ZM148.104 151.971C173.716 151.971 184.725 181.555 207.966 184.391C210.031 184.774 209.725 184.621 210.031 184.238C209.878 183.548 208.578 183.625 206.743 183.088C191.529 178.643 176.774 161.321 164.312 151.664C169.969 137.561 180.979 132.12 193.364 130.97C194.358 128.517 193.823 123.765 190.459 122.309C182.508 121.543 174.327 124.838 171.728 127.444C168.058 121.16 164.312 116.484 159.801 111.196C158.349 109.433 156.667 107.977 155.291 106.367C156.743 105.524 158.654 104.758 160.26 104.145C192.599 91.0384 244.664 95.5604 258.119 132.809C240 75.2497 182.89 82.9907 149.021 101.232C144.358 95.7903 127.08 89.812 120.657 88.5857L120.122 88.5091L119.587 88.3558C120.428 87.0529 123.104 84.6002 124.709 83.2973C125.398 82.7608 130.443 79.0052 130.52 78.9286C132.049 78.1621 133.272 77.2424 134.801 76.3227C144.052 71.0342 156.972 64.9027 167.294 62.8333L174.862 77.0125L172.492 61.9902C204.144 56.3952 247.339 60.9938 269.358 96.0202C267.446 98.6261 267.752 98.7794 266.453 102.228C272.722 105.831 274.633 106.827 279.297 110.659L265.382 118.017L264.771 118.324L284.343 116.331C290.841 131.66 300.168 145.302 295.81 179.486L286.33 180.482C293.899 184.544 294.817 184.851 295.581 188.147C296.422 191.596 294.052 199.72 290.765 208.687C286.024 194.431 274.557 179.869 256.514 172.971C261.713 164.387 245.887 126.908 229.755 137.561C249.557 155.266 248.028 168.449 243.67 189.909C245.275 194.125 260.719 203.782 262.783 206.541C261.177 210.45 250.55 227.542 247.416 231.067L228.303 194.125C234.725 189.45 235.26 179.103 228.303 173.967C221.04 168.526 211.636 174.581 211.101 181.249L211.483 180.712C211.636 180.482 211.636 180.406 211.789 180.176C217.523 169.062 229.22 173.201 231.055 181.325C232.049 185.924 231.284 191.212 225.168 194.431C219.434 197.421 214.694 195.121 212.554 196.348C203.685 201.636 203.456 214.665 211.636 223.25C201.239 254.52 170.581 258.276 150.474 236.126C159.343 233.75 167.446 234.056 171.498 207.154C171.804 205.085 172.492 203.092 174.098 201.406C178.379 197.037 181.896 194.585 186.789 190.982L186.483 183.471L170.657 189.603L168.364 197.421L161.56 191.366L148.104 151.971ZM185.336 190.523L171.881 201.713L180.138 189.603L179.144 187.993L185.031 185.617L185.336 190.523ZM90 310.547H113.012L115.688 314.993H120.352V302.806H116.529V270.769H105.443V302.806H101.009V270.769H90V310.547Z" fill="#1F1F1F"/>
</g>
<defs>
<filter id="filter0_ddd" x="0" y="0" width="430" height="462" filterUnits="userSpaceOnUse" color-interpolation-filters="sRGB">
<feFlood flood-opacity="0" result="BackgroundImageFix"/>
<feColorMatrix in="SourceAlpha" type="matrix" values="0 0 0 0 0 0 0 0 0 0 0 0 0 0 0 0 0 0 127 0" result="hardAlpha"/>
<feOffset dy="16"/>
<feGaussianBlur stdDeviation="5"/>
<feComposite in2="hardAlpha" operator="out"/>
<feColorMatrix type="matrix" values="0 0 0 0 0.024993 0 0 0 0 0.0204861 0 0 0 0 0.245833 0 0 0 0.15 0"/>
<feBlend mode="normal" in2="BackgroundImageFix" result="effect1_dropShadow"/>
<feColorMatrix in="SourceAlpha" type="matrix" values="0 0 0 0 0 0 0 0 0 0 0 0 0 0 0 0 0 0 127 0" result="hardAlpha"/>
<feOffset dy="8"/>
<feComposite in2="hardAlpha" operator="out"/>
<feColorMatrix type="matrix" values="0 0 0 0 1 0 0 0 0 0.894118 0 0 0 0 0.333333 0 0 0 1 0"/>
<feBlend mode="normal" in2="effect1_dropShadow" result="effect2_dropShadow"/>
<feColorMatrix in="SourceAlpha" type="matrix" values="0 0 0 0 0 0 0 0 0 0 0 0 0 0 0 0 0 0 127 0" result="hardAlpha"/>
<feOffset dy="4"/>
<feComposite in2="hardAlpha" operator="out"/>
<feColorMatrix type="matrix" values="0 0 0 0 0 0 0 0 0 0 0 0 0 0 0 0 0 0 1 0"/>
<feBlend mode="normal" in2="effect2_dropShadow" result="effect3_dropShadow"/>
<feBlend mode="normal" in="SourceGraphic" in2="effect3_dropShadow" result="shape"/>
</filter>
<clipPath id="clip0">
<rect width="250" height="296" fill="white" transform="translate(90 60)"/>
</clipPath>
</defs>
</svg>
