<svg width="52" height="52" viewBox="0 0 52 52" fill="none" xmlns="http://www.w3.org/2000/svg">
<path d="M41.9138 0H10.0855C8.88884 0 7.91885 0.969987 7.91885 2.16666V44.0482C7.91885 45.2449 8.88884 46.2149 10.0855 46.2149H13.4547V50.9165C13.4547 51.5148 13.9396 51.9999 14.5379 52C14.8546 52 15.1555 51.8615 15.3613 51.6207L17.7447 48.8474L20.128 51.6207C20.5169 52.0754 21.2008 52.1288 21.6554 51.74C21.896 51.5342 22.0347 51.2333 22.0347 50.9165V46.2149H41.9138C43.1104 46.2149 44.0804 45.2449 44.0804 44.0482V2.16666C44.0804 0.969987 43.1104 0 41.9138 0ZM18.568 46.4424C18.1791 45.9876 17.4952 45.9343 17.0406 46.3231C16.9978 46.3596 16.958 46.3996 16.9213 46.4424L15.6213 47.959V43.8424C16.99 44.3579 18.4993 44.3579 19.868 43.8424V47.959L18.568 46.4424ZM21.6772 38.0791C21.6773 40.2581 19.9235 42.0312 17.7447 42.0549H17.7013C15.5056 42.0549 13.7255 40.2748 13.7255 38.0791C13.7255 35.8833 15.5056 34.1032 17.7013 34.1032C19.8971 34.1032 21.6772 35.8833 21.6772 38.0791ZM41.8596 44.0374H22.0347V42.4666C24.4625 40.0973 24.5101 36.2083 22.1408 33.7804C19.7716 31.3525 15.8826 31.305 13.4547 33.6742C11.0268 36.0435 10.9793 39.9325 13.3485 42.3604C13.3834 42.3963 13.4188 42.4316 13.4547 42.4666V44.0374H10.0855V2.16666H41.9138L41.8596 44.0374Z" fill="#0227AB"/>
<path d="M35.4139 8.56934H16.5856C15.9874 8.56934 15.5023 9.0544 15.5023 9.65267C15.5023 10.2509 15.9874 10.736 16.5856 10.736H35.4139C36.0122 10.736 36.4973 10.2509 36.4973 9.65267C36.4973 9.0544 36.0123 8.56934 35.4139 8.56934Z" fill="#0227AB"/>
<path d="M35.4139 14.7979H16.5856C15.9874 14.7979 15.5023 15.2829 15.5023 15.8812C15.5023 16.4794 15.9874 16.9645 16.5856 16.9645H35.4139C36.0122 16.9645 36.4973 16.4794 36.4973 15.8812C36.4973 15.2829 36.0123 14.7979 35.4139 14.7979Z" fill="#0227AB"/>
<path d="M35.4139 21.0273H16.5856C15.9874 21.0273 15.5023 21.5124 15.5023 22.1107C15.5023 22.7089 15.9874 23.194 16.5856 23.194H35.4139C36.0122 23.194 36.4973 22.7089 36.4973 22.1107C36.4973 21.5124 36.0123 21.0273 35.4139 21.0273Z" fill="#0227AB"/>
<path d="M35.4139 27.2568H16.5856C15.9874 27.2568 15.5023 27.7419 15.5023 28.3402C15.5023 28.9384 15.9874 29.4235 16.5856 29.4235H35.4139C36.0122 29.4235 36.4973 28.9384 36.4973 28.3402C36.4973 27.7419 36.0123 27.2568 35.4139 27.2568Z" fill="#0227AB"/>
<path d="M35.4143 33.4854H26.8127C26.2144 33.4854 25.7294 33.9704 25.7294 34.5687C25.7294 35.167 26.2144 35.652 26.8127 35.652H35.4143C36.0126 35.652 36.4977 35.167 36.4977 34.5687C36.4977 33.9704 36.0127 33.4854 35.4143 33.4854Z" fill="#0227AB"/>
</svg>
