<svg width="52" height="52" viewBox="0 0 52 52" fill="none" xmlns="http://www.w3.org/2000/svg">
<g clip-path="url(#clip0)">
<path d="M47.0855 12.0082H39.1253V6.28912C39.1253 4.30591 37.5141 2.69238 35.5337 2.69238H16.4664C14.486 2.69238 12.8748 4.3058 12.8748 6.28912V12.0082H4.91451C2.20462 12.0082 0 14.2129 0 16.9227V44.3891C0 47.1011 2.20299 49.3074 4.91085 49.3074H47.0893C49.7971 49.3074 52.0001 47.1011 52.0001 44.3891V16.9227C52 14.2129 49.7954 12.0082 47.0855 12.0082ZM14.906 6.28912C14.906 5.42594 15.6061 4.72363 16.4664 4.72363H35.5336C36.394 4.72363 37.094 5.42594 37.094 6.28912V12.0082H34.4583V8.38405C34.4583 7.82312 34.0036 7.36842 33.4427 7.36842H18.5573C17.9964 7.36842 17.5417 7.82312 17.5417 8.38405V12.0082H14.906V6.28912ZM19.5729 12.0082V9.39967H32.4271V12.0082H19.5729ZM2.03125 16.9227C2.03125 15.3329 3.32465 14.0395 4.91451 14.0395H47.0855C48.6754 14.0395 49.9688 15.3329 49.9688 16.9227V26.3417C49.9688 29.4754 47.4192 32.025 44.2855 32.025H43.1938V27.7175C43.1938 27.1566 42.7391 26.7019 42.1782 26.7019H35.9952C35.4342 26.7019 34.9795 27.1566 34.9795 27.7175V32.025H17.0206V27.7175C17.0206 27.1566 16.5659 26.7019 16.0049 26.7019H9.82181C9.26087 26.7019 8.80618 27.1566 8.80618 27.7175V32.025H7.71448C4.58077 32.0251 2.03125 29.4755 2.03125 26.3418V16.9227ZM41.1626 28.7332V36.3325H37.0108V28.7332H41.1626ZM14.9893 28.7332V36.3325H10.8375V28.7332H14.9893ZM49.9688 44.3892C49.9688 45.9812 48.677 47.2763 47.0891 47.2763H4.91085C3.32302 47.2762 2.03125 45.9811 2.03125 44.3892V31.5532C3.44246 33.0908 5.46782 34.0563 7.71448 34.0563H8.80618V37.3481C8.80618 37.9091 9.26087 38.3638 9.82181 38.3638H16.0048C16.5658 38.3638 17.0205 37.9091 17.0205 37.3481V34.0563H34.9793V37.3481C34.9793 37.9091 35.434 38.3638 35.995 38.3638H42.178C42.7389 38.3638 43.1936 37.9091 43.1936 37.3481V34.0563H44.2853C46.532 34.0563 48.5573 33.091 49.9685 31.5532V44.3892H49.9688Z" fill="#0227AB"/>
<path d="M13.9534 19.4717H38.047C38.6079 19.4717 39.0626 19.017 39.0626 18.4561C39.0626 17.8951 38.6079 17.4404 38.047 17.4404H13.9534C13.3925 17.4404 12.9378 17.8951 12.9378 18.4561C12.9378 19.017 13.3925 19.4717 13.9534 19.4717Z" fill="#0227AB"/>
</g>
<defs>
<clipPath id="clip0">
<rect width="52" height="52" fill="white"/>
</clipPath>
</defs>
</svg>
