<svg width="52" height="72" viewBox="0 0 52 72" fill="none" xmlns="http://www.w3.org/2000/svg">
<path d="M32.1 28.5C37.9667 29.4333 42.6667 31.6667 46.2 35.2C49.8 38.7333 51.6 43.3667 51.6 49.1C51.6 56.0333 49.2 61.4667 44.4 65.4C39.6 69.3333 33.4667 71.3 26 71.3C19.9333 71.3 14.6 69.9 10 67.1C5.46667 64.2333 2.3 60.3 0.5 55.3L8.3 50.7C9.36667 54.3 11.4333 57.1333 14.5 59.2C17.6333 61.2 21.4 62.2 25.8 62.2C31 62.2 35.0667 61.0667 38 58.8C40.9333 56.5333 42.4 53.3 42.4 49.1C42.4 44.9667 40.9 41.7667 37.9 39.5C34.9667 37.1667 30.9333 36 25.8 36H23.6L19.7 30.3L37.2 8.7H2.8V0H48.6V8.2L32.1 28.5Z" fill="#FFE455"/>
</svg>
