<svg width="47" height="88" viewBox="0 0 47 88" fill="none" xmlns="http://www.w3.org/2000/svg">
<path d="M11.2311 80.6452C11.4752 80.6452 11.7194 80.6452 12.0856 80.6452C12.2077 80.6452 12.2077 80.6452 12.3298 80.6452C12.4519 80.6452 12.4518 80.6452 12.5739 80.6452C12.696 80.6452 12.9402 80.7638 13.0622 80.7638C13.6726 80.8824 14.4051 81.2382 15.1376 81.4754C15.87 81.7126 16.4804 82.0684 17.0908 82.4242C17.7012 82.78 18.3116 83.0172 18.6778 83.2544C19.044 83.4916 19.2882 83.6102 19.2882 83.6102C19.2882 83.6102 19.2882 83.6102 19.1661 83.7288C19.044 83.7288 18.922 83.8474 18.6778 83.8474C18.1895 83.966 17.5791 84.0846 16.9687 84.2032C16.8466 84.2032 16.6025 84.3218 16.4804 84.3218C16.2363 84.3218 16.1142 84.3217 15.87 84.4403C15.5038 84.4403 15.1376 84.559 14.6492 84.559C13.9168 84.559 13.0622 84.4404 12.4518 84.3218C11.109 83.966 10.2544 83.1358 9.64406 82.5428C9.03367 81.8312 8.78952 81.3568 8.78952 81.3568C8.78952 81.3568 9.27783 81.1196 10.0103 80.8824C10.2545 80.7638 10.7428 80.6452 11.2311 80.6452Z" fill="#0227AB"/>
<path d="M9.27791 75.5488C9.64415 75.0744 10.0104 74.6 10.3766 74.2442C10.6208 74.007 10.8649 73.8884 10.987 73.6512C11.1091 73.5326 11.2312 73.5326 11.3532 73.414C11.4753 73.2954 11.5974 73.2954 11.7195 73.1768C12.0857 72.821 12.4519 72.5838 12.8182 72.4652C13.0623 72.2281 13.3065 72.2281 13.3065 72.2281C13.3065 72.2281 13.3065 72.4653 13.3065 72.821C13.3065 73.1768 13.3065 73.7698 13.1844 74.3628C13.0623 74.9558 12.9402 75.6674 12.8182 76.2604C12.574 76.8534 12.3299 77.5649 11.9636 78.0393C11.8415 78.1579 11.8415 78.2765 11.7195 78.3951L11.4753 78.6323C11.2312 78.8695 11.1091 78.9881 10.8649 79.1067C10.6208 79.2253 10.4987 79.3439 10.2545 79.4625C10.0104 79.5811 9.8883 79.5811 9.64415 79.6997C8.91168 79.9369 8.42337 79.8183 8.42337 79.8183C8.42337 79.8183 8.30129 79.2253 8.42337 78.3951C8.42337 77.9207 8.54545 77.4463 8.66753 76.972C8.66753 76.8534 8.7896 76.7348 8.7896 76.6162C8.7896 76.4976 8.91168 76.379 8.91168 76.2604C8.91168 76.0232 9.03376 75.786 9.27791 75.5488Z" fill="#0227AB"/>
<path d="M19.6546 76.9714C19.6546 76.9714 19.7767 76.8528 19.8987 76.8528C20.0208 76.7342 20.3871 76.497 20.6312 76.3784C20.7533 76.2598 20.9974 76.1412 21.2416 76.1412C21.4858 76.0226 21.7299 76.0226 21.9741 75.904C22.4624 75.7854 23.0728 75.6668 23.6832 75.6668C24.0494 75.6668 24.4156 75.6668 24.7818 75.7854C25.1481 75.7854 25.5143 75.904 25.8806 75.904C26.2468 75.904 26.613 76.0226 26.9792 76.1412C27.3455 76.2598 27.7117 76.2598 28.0779 76.3784C28.8104 76.497 29.4208 76.6156 29.787 76.7342C30.2753 76.8528 30.5195 76.8528 30.5195 76.8528C30.5195 76.8528 30.2753 76.9714 29.9091 77.2086C29.665 77.3272 29.5429 77.4458 29.1766 77.5644C29.0546 77.683 28.9325 77.683 28.8104 77.8016C28.6883 77.9202 28.5663 77.9202 28.3221 78.0388C27.9559 78.1574 27.7117 78.2759 27.3455 78.5131C27.2234 78.6317 26.9792 78.6317 26.8572 78.7503C26.7351 78.7503 26.7351 78.8689 26.613 78.8689C26.4909 78.8689 26.3689 78.8689 26.3689 78.9875C25.6364 79.2247 24.9039 79.3433 24.1715 79.3433C22.7065 79.3433 21.6078 78.7503 20.8754 78.2759C20.5091 78.0387 20.265 77.8016 20.0208 77.5644C19.6546 77.09 19.5325 76.9714 19.6546 76.9714C19.5325 76.9714 19.5325 76.9714 19.6546 76.9714Z" fill="#0227AB"/>
<path d="M21.6077 72.9363C21.4856 73.5293 21.1193 74.0037 20.8752 74.3595C20.7531 74.5967 20.509 74.7153 20.3869 74.8339C20.2648 74.9525 20.0206 75.0711 19.8986 75.1897C19.5323 75.4269 19.2882 75.5455 19.044 75.5455C18.9219 75.5455 18.7999 75.5455 18.7999 75.6641C18.6778 75.6641 18.6778 75.6641 18.6778 75.6641C18.6778 75.6641 18.5557 75.5455 18.5557 75.3083C18.4336 75.0711 18.4336 74.7153 18.3116 74.3595C18.1895 73.5293 18.0674 72.4619 18.4336 71.3946C18.5557 70.8016 18.7999 70.3272 19.1661 69.8528C19.4103 69.3784 19.7765 68.904 20.1427 68.5482C20.2648 68.311 20.509 68.1924 20.631 67.9552C20.7531 67.8366 20.8752 67.5995 20.9973 67.4809C21.2414 67.2437 21.3635 67.1251 21.3635 67.1251C21.3635 67.1251 21.2414 67.2437 21.3635 67.5994C21.4856 67.9552 21.6077 68.5482 21.6077 69.1412C21.6077 69.497 21.7297 69.7342 21.7297 70.09C21.7297 70.4458 21.7297 70.8016 21.7297 71.0388C21.7297 71.3946 21.7297 71.7504 21.6077 71.9876C21.7297 72.3433 21.6077 72.6991 21.6077 72.9363Z" fill="#0227AB"/>
<path d="M29.2986 69.3794C29.4207 69.1422 29.6648 68.905 29.909 68.6678C30.1531 68.4306 30.5194 68.0748 31.0077 67.8376C31.496 67.6004 31.9843 67.3632 32.5947 67.126C32.8388 67.126 33.083 67.0074 33.3271 67.0074C33.5713 67.0074 33.8154 66.8888 34.0596 66.8888C35.2804 66.6516 36.6232 66.6516 37.7219 66.533C38.8206 66.533 39.5531 66.4144 39.5531 66.4144C39.5531 66.4144 39.3089 66.7702 38.8206 67.2446C38.4544 67.719 37.7219 68.312 36.9895 68.905C36.8674 69.0236 36.7453 69.0236 36.6232 69.1422L36.5012 69.2608C36.5012 69.2608 36.3791 69.3794 36.257 69.3794C36.0128 69.6166 35.7687 69.8538 35.5245 69.9724C35.2804 70.091 35.0362 70.2096 34.7921 70.3282C34.5479 70.4468 34.3038 70.5654 34.0596 70.5654C32.7167 70.9211 31.496 70.684 30.6414 70.4468C29.7869 70.091 29.2986 69.7352 29.2986 69.7352C29.2986 69.7352 29.1765 69.6166 29.2986 69.3794Z" fill="#0227AB"/>
<path d="M28.8103 67.8389C28.5661 68.0761 28.3219 68.3133 28.1999 68.4319C27.9557 68.5505 27.8336 68.5505 27.8336 68.5505C27.8336 68.5505 27.4674 68.0761 26.9791 67.3645C26.6129 66.6529 26.1245 65.5856 26.1245 64.3996C26.1245 64.0438 26.1245 63.5694 26.2466 63.095C26.2466 62.8578 26.3687 62.7392 26.3687 62.502C26.3687 62.2648 26.4908 62.1462 26.4908 61.909C26.6129 61.5533 26.7349 61.3161 26.857 60.9603C26.857 60.8417 26.9791 60.8417 26.9791 60.7231C26.9791 60.6045 26.9791 60.6045 27.1012 60.4859C27.1012 60.3673 27.2232 60.2487 27.2232 60.1301C27.4674 59.6557 27.5895 59.4185 27.5895 59.4185C27.5895 59.4185 27.9557 60.0115 28.444 60.8417C28.5661 61.0789 28.6882 61.3161 28.8103 61.5533C28.8103 61.6719 28.9323 61.7905 28.9323 61.909C28.9323 62.0276 29.0544 62.1462 29.0544 62.2648C29.2986 62.7392 29.4206 63.3322 29.5427 63.9252C29.5427 64.1624 29.6648 64.3996 29.6648 64.5182C29.6648 64.7554 29.6648 64.874 29.6648 65.1112C29.6648 65.7042 29.5427 66.1786 29.4206 66.6529C29.4206 67.2459 29.0544 67.6017 28.8103 67.8389Z" fill="#0227AB"/>
<path d="M38.4545 60.4843C38.2104 60.4843 37.9662 60.4843 37.7221 60.4843C36.7455 60.4843 36.2571 60.2471 36.2571 60.2471C36.2571 60.2471 36.2571 60.1285 36.3792 59.8913C36.3792 59.7727 36.5013 59.6541 36.5013 59.5355C36.5013 59.4169 36.6234 59.2983 36.7455 59.0611C36.8675 58.7053 37.1117 58.3495 37.4779 57.9938C37.6 57.8752 37.6 57.8752 37.7221 57.7566C37.8442 57.638 37.9662 57.5194 38.0883 57.5194C38.2104 57.2822 38.4545 57.1636 38.6987 56.9264C38.9429 56.8078 39.3091 56.5706 39.6753 56.452C40.0416 56.3334 40.2857 56.0962 40.6519 55.9776C41.3844 55.7404 42.1169 55.5032 42.8493 55.266C43.4597 55.0288 44.0701 54.7916 44.5584 54.673C44.9247 54.673 45.1688 54.5544 45.1688 54.5544C45.1688 54.5544 45.0467 54.7916 44.9247 55.1474C44.8026 55.3846 44.6805 55.6218 44.5584 55.859C44.4364 56.0962 44.1922 56.3334 44.0701 56.6892C43.948 56.9264 43.7039 57.2822 43.4597 57.5194C43.4597 57.638 43.3377 57.638 43.3377 57.7566C43.3377 57.8752 43.2156 57.8752 43.2156 57.9938C43.0935 58.1124 42.9714 58.2309 42.8493 58.4681C42.6052 58.7053 42.361 59.0611 41.9948 59.2983C41.8727 59.4169 41.7506 59.5355 41.6286 59.6541C41.5065 59.7727 41.3844 59.8913 41.1403 59.8913C40.5299 60.2471 39.9195 60.4843 39.3091 60.4843C38.9429 60.4843 38.6987 60.4843 38.4545 60.4843Z" fill="#0227AB"/>
<path d="M35.7686 57.4013C35.7686 57.8757 35.5244 58.2315 35.4023 58.5873C35.2803 58.7059 35.2803 58.9431 35.1582 59.0617C35.0361 59.1803 35.0361 59.2989 34.914 59.4175C34.7919 59.5361 34.6699 59.6547 34.6699 59.6547C34.6699 59.6547 34.1816 59.2989 33.5712 58.7059C33.4491 58.5873 33.327 58.3501 33.0829 58.2315C32.9608 57.9943 32.7166 57.8757 32.5945 57.6385C32.3504 57.1642 31.9842 56.6898 31.8621 56.2154C31.8621 56.0968 31.74 55.9782 31.74 55.8596C31.74 55.741 31.6179 55.6224 31.6179 55.3852C31.6179 55.148 31.4958 54.7922 31.4958 54.555C31.4958 53.962 31.4958 53.369 31.4958 52.8946C31.4958 52.6574 31.4958 52.4202 31.6179 52.1831C31.6179 51.9459 31.6179 51.8273 31.6179 51.5901C31.6179 51.2343 31.74 51.1157 31.74 51.1157C31.74 51.1157 31.9842 51.2343 32.2283 51.5901C32.4725 51.8273 32.9608 52.1831 33.327 52.6574C33.6932 53.1318 34.1816 53.6062 34.5478 54.1992C34.7919 54.4364 34.914 54.7922 35.0361 55.0294C35.1582 55.2666 35.2803 55.6224 35.4023 55.8596C35.5244 56.0968 35.5244 56.4526 35.5244 56.6898C35.5244 56.8084 35.5244 56.927 35.5244 57.0456C35.5244 57.1642 35.5244 57.1641 35.5244 57.2827C35.7686 57.2827 35.7686 57.2827 35.7686 57.4013Z" fill="#0227AB"/>
<path d="M43.826 48.7437C43.5818 48.8623 43.3377 49.0995 43.0935 49.2181C42.6052 49.4553 42.1169 49.5739 41.6286 49.6925C40.652 49.9297 40.0416 49.8111 40.0416 49.8111C40.0416 49.8111 39.9195 49.3367 40.1636 48.6251C40.1636 48.3879 40.2857 48.2693 40.2857 48.0321C40.4078 47.7949 40.4078 47.5577 40.5299 47.4391C40.652 47.2019 40.774 46.9647 40.8961 46.7275C41.0182 46.6089 41.0182 46.4903 41.1403 46.3717L41.3844 46.1345C42.239 45.1858 43.7039 44.237 44.8026 43.5254C45.413 43.1696 45.9013 42.8138 46.2675 42.5766C46.7558 42.2208 47 42.1022 47 42.1022C47 42.1022 47 42.3394 46.8779 42.8138C46.7558 43.2882 46.6338 43.7626 46.5117 44.4742C46.3896 45.0672 46.0234 45.7788 45.7792 46.3717C45.6571 46.4903 45.6571 46.7275 45.5351 46.8461C45.413 46.9647 45.2909 47.2019 45.2909 47.3205C45.0468 47.6763 44.8026 47.9135 44.6805 48.1507C44.3143 48.3879 44.0701 48.6251 43.826 48.7437Z" fill="#0227AB"/>
<path d="M38.3323 49.5739C38.3323 49.5739 37.7219 49.3367 36.9894 48.9809C36.6232 48.7437 36.1349 48.5065 35.7686 48.1507C35.5245 48.0321 35.4024 47.7949 35.1582 47.5577C34.9141 47.3205 34.792 47.0833 34.6699 46.8461C34.5479 46.6089 34.4258 46.3717 34.1816 46.1345C34.0595 45.8974 33.9375 45.6602 33.8154 45.3044C33.5712 44.7114 33.4492 44.237 33.3271 43.7626C33.205 43.2882 33.0829 42.8138 33.0829 42.5766C33.0829 42.2208 33.0829 42.1022 33.0829 42.1022C33.0829 42.1022 33.3271 42.2208 33.6933 42.3394C34.0595 42.5766 34.5479 42.8138 35.0362 43.1696C35.5245 43.5254 36.1349 43.8812 36.6232 44.3556C37.1115 44.83 37.5998 45.3044 37.966 45.7788C38.3323 45.8974 38.4543 46.2531 38.4543 46.4903C38.5764 46.7275 38.5764 46.9647 38.6985 47.2019C38.6985 47.4391 38.8206 47.6763 38.8206 47.9135C38.8206 48.1507 38.8206 48.2693 38.8206 48.5065C38.5764 49.0995 38.3323 49.5739 38.3323 49.5739Z" fill="#0227AB"/>
<path d="M45.1686 33.2066C45.1686 33.4438 45.0465 33.7995 45.0465 34.0367C44.9244 34.6297 44.8024 35.1041 44.5582 35.5785C44.192 36.1715 43.8257 36.6459 43.4595 37.0017C43.0933 37.3575 42.605 37.5947 42.2387 37.8319C41.3842 38.1876 40.7738 38.3062 40.7738 38.3062C40.7738 38.3062 40.7738 38.1876 40.6517 37.9505C40.6517 37.7133 40.5296 37.4761 40.5296 37.1203C40.5296 36.7645 40.5296 36.2901 40.6517 35.8157C40.7738 35.3413 40.8959 34.8669 41.14 34.2739C41.2621 34.0367 41.3842 33.9181 41.5063 33.6809C41.6283 33.5623 41.6283 33.4438 41.7504 33.4438C41.8725 33.3252 41.8725 33.2066 41.9946 33.2066C42.3608 32.7322 42.727 32.2578 43.0933 31.7834C43.4595 31.309 43.8257 30.8346 44.192 30.4788C44.8024 29.6486 45.2907 29.1742 45.2907 29.1742C45.2907 29.1742 45.4127 29.53 45.4127 30.2416C45.4127 30.5974 45.5348 30.9532 45.5348 31.309C45.5348 31.6648 45.5348 32.1392 45.5348 32.6136C45.2907 32.6136 45.1686 32.9694 45.1686 33.2066Z" fill="#0227AB"/>
<path d="M34.5479 36.7659C34.4258 36.6473 34.4258 36.6474 34.3037 36.5288C34.1816 36.4102 34.1816 36.4102 34.0595 36.2916C33.9375 36.173 33.8154 35.9358 33.5712 35.8172C33.4492 35.6986 33.3271 35.4614 33.205 35.3428C33.0829 35.1056 32.9608 34.987 32.8388 34.8684C32.5946 34.6312 32.4725 34.2754 32.3505 34.0382C32.2284 33.9196 32.2284 33.801 32.1063 33.6824C32.1063 33.5638 31.9842 33.4452 31.8621 33.3266C31.618 32.8522 31.4959 32.615 31.4959 32.615C31.4959 32.615 32.2284 32.7336 33.205 32.9708C33.4492 33.0894 33.6933 33.0894 33.9375 33.208C34.1816 33.3266 34.4258 33.3266 34.792 33.4452C35.2803 33.6824 35.8907 33.9196 36.379 34.1568C36.7453 34.394 37.1115 34.6312 37.4777 34.8684C37.966 35.2242 38.3323 35.6986 38.4543 36.0544C38.6985 36.5288 38.8206 36.8845 38.8206 37.2403C38.8206 37.5961 38.8206 37.8333 38.8206 38.0705C38.8206 38.3077 38.6985 38.4263 38.6985 38.4263C38.6985 38.4263 38.0881 38.4263 37.2336 38.1891C36.6232 37.9519 35.4024 37.4775 34.5479 36.7659Z" fill="#0227AB"/>
<path d="M40.0416 25.0254C39.7974 25.4998 39.4312 25.8556 39.0649 26.2114C38.4546 26.8044 37.8442 27.0416 37.8442 27.0416C37.8442 27.0416 37.7221 26.923 37.6 26.8044C37.4779 26.5672 37.3559 26.33 37.2338 25.9742C37.1117 25.6184 36.9896 25.2626 36.8675 24.7882C36.8675 24.551 36.8675 24.3138 36.8675 23.9581C36.8675 23.7209 36.8675 23.3651 36.9896 23.1279C36.9896 22.7721 37.1117 22.5349 37.2338 22.1791C37.2338 22.0605 37.3559 21.8233 37.3559 21.7047C37.3559 21.5861 37.4779 21.3489 37.4779 21.2303C37.7221 20.5187 37.9662 19.9257 38.3325 19.2142C38.4546 18.8584 38.5766 18.6212 38.6987 18.384C38.8208 18.1468 38.9429 17.9096 39.0649 17.6724C39.187 17.3166 39.3091 17.0794 39.3091 17.0794C39.3091 17.0794 39.4312 17.3166 39.6753 17.6724C39.6753 17.791 39.7974 18.0282 39.9195 18.2654C40.0416 18.5026 40.1636 18.8584 40.2857 19.0956C40.2857 19.2142 40.4078 19.4513 40.4078 19.5699C40.4078 19.6885 40.5299 19.9257 40.5299 20.0443C40.652 20.4001 40.652 20.7559 40.774 21.1117C40.774 21.4675 40.8961 21.8233 40.8961 22.1791C40.8961 22.5349 40.8961 22.8907 40.774 23.2465C40.5299 24.0766 40.2857 24.551 40.0416 25.0254Z" fill="#0227AB"/>
<path d="M30.7638 26.8034C30.5196 26.6848 30.2755 26.4476 30.0313 26.329C29.7872 26.0918 29.543 25.9732 29.4209 25.736C29.1768 25.4988 29.0547 25.3802 28.8106 25.143C28.5664 24.9058 28.4443 24.7872 28.3222 24.6686C28.2002 24.55 28.2002 24.55 28.0781 24.4314C27.956 24.3129 27.956 24.3129 27.956 24.1943C27.7119 23.9571 27.5898 23.8385 27.5898 23.8385C27.5898 23.8385 27.8339 23.8385 28.2002 23.8385C28.5664 23.8385 29.1768 23.8385 29.7872 23.8385C30.3976 23.8385 31.13 23.9571 31.8625 24.0757C31.9846 24.0757 32.2287 24.1943 32.3508 24.1943C32.4729 24.1943 32.717 24.3129 32.8391 24.3129C33.2054 24.4314 33.4495 24.55 33.8157 24.6686C34.0599 24.7872 34.3041 24.9058 34.5482 25.143C34.7924 25.2616 34.9144 25.4988 35.1586 25.6174C35.5248 25.9732 35.769 26.329 35.8911 26.6848C36.0131 26.8034 36.1352 27.1592 36.1352 27.2778C36.1352 27.515 36.1352 27.6336 36.1352 27.6336C36.1352 27.6336 35.5248 27.7522 34.6703 27.7522C34.182 27.7522 33.6937 27.7522 33.2054 27.6336C32.717 27.515 32.1067 27.3964 31.4963 27.1592C31.2521 27.0406 31.008 26.922 30.7638 26.8034Z" fill="#0227AB"/>
<path d="M33.5717 14.9415C33.4496 15.4159 33.2055 15.8903 32.9613 16.2461C32.473 16.9576 31.9847 17.432 31.9847 17.432C31.9847 17.432 31.4964 17.1948 31.0081 16.6018C30.886 16.4832 30.7639 16.2461 30.6418 16.1275C30.5198 15.8903 30.3977 15.7717 30.2756 15.5345C30.0315 15.0601 29.9094 14.5857 29.9094 13.8741C29.7873 13.2811 29.9094 12.5695 29.9094 11.858C29.9094 11.1464 30.0315 10.4348 30.1535 9.7232C30.2756 9.13021 30.2756 8.53722 30.3977 8.06283C30.5198 7.70704 30.5198 7.35125 30.5198 7.35125C30.5198 7.35125 30.5198 7.35125 30.6418 7.46985C30.7639 7.58844 30.886 7.70704 31.0081 7.82564C31.2522 8.18143 31.6185 8.65582 32.1068 9.13021C32.473 9.7232 32.8392 10.3162 33.2055 11.0278C33.4496 11.7394 33.6938 12.4509 33.8159 13.0439C33.8159 13.1625 33.8159 13.3997 33.8159 13.5183C33.8159 13.6369 33.8159 13.8741 33.8159 13.9927C33.6938 14.3485 33.6938 14.7043 33.5717 14.9415Z" fill="#0227AB"/>
<path d="M25.148 18.9765C25.0259 18.9765 24.9038 18.8579 24.6597 18.8579C24.5376 18.8579 24.5376 18.8579 24.4155 18.7393C24.2934 18.7393 24.2934 18.7393 24.1714 18.6207C23.561 18.3835 23.0727 18.1463 22.5844 17.9091C22.096 17.672 21.7298 17.4348 21.4857 17.3162C21.3636 17.1976 21.2415 17.1976 21.1194 17.079C20.9973 17.079 20.9973 16.9604 20.9973 16.9604C20.9973 16.9604 20.9973 16.9604 21.1194 16.8418C21.2415 16.8418 21.3636 16.7232 21.6077 16.7232C21.974 16.6046 22.5844 16.486 23.1947 16.2488C23.561 16.1302 23.8051 16.1302 24.1714 16.0116C24.2934 16.0116 24.5376 16.0116 24.6597 15.893C24.7818 15.893 25.0259 15.893 25.148 15.893C25.8805 15.893 26.6129 15.893 27.2233 15.893C27.8337 16.0116 28.322 16.2488 28.8103 16.486C29.0545 16.6046 29.1765 16.7232 29.4207 16.8418C29.5428 16.9604 29.6649 17.079 29.7869 17.3162C30.2752 17.9091 30.3973 18.3835 30.3973 18.3835C30.3973 18.3835 29.7869 18.7393 28.9324 18.8579C28.4441 18.9765 27.9558 19.0951 27.4675 19.0951C26.9792 19.0951 26.3688 19.0951 25.7584 19.0951C25.7584 19.0951 25.5142 18.9765 25.148 18.9765Z" fill="#0227AB"/>
<path d="M23.5614 8.89481C23.4393 9.132 23.3173 9.2506 23.3173 9.2506C23.3173 9.2506 23.3173 9.2506 23.1952 9.2506C23.1952 9.2506 23.0731 9.2506 22.951 9.132C22.7069 9.0134 22.4627 8.89481 22.0965 8.65761C21.4861 8.18322 20.7536 7.47164 20.2653 6.28566C20.1433 5.92987 20.0212 5.57408 19.8991 5.09969C19.777 4.5067 19.6549 3.91372 19.5329 3.32073C19.4108 2.72774 19.2887 2.13475 19.1666 1.66036C19.0446 0.711585 18.9225 0 18.9225 0C18.9225 0 19.2887 0.237195 19.777 0.592987C20.1433 0.711585 20.3874 0.948779 20.7536 1.18597C21.1199 1.42317 21.364 1.77896 21.7303 2.01616C21.9744 2.25335 22.0965 2.37195 22.3407 2.60914L22.5848 2.84634C22.7069 2.96494 22.7069 3.08353 22.829 3.20213C23.1952 3.67652 23.4393 4.15091 23.6835 4.6253C23.8056 4.98109 23.9277 5.21829 23.9277 5.57408C23.9277 5.81127 24.0497 6.16707 24.0497 6.40426C24.0497 6.99725 23.9277 7.47164 23.9277 7.82743C23.8056 8.30182 23.6835 8.65761 23.5614 8.89481Z" fill="#0227AB"/>
<path d="M15.3822 12.3345C15.016 12.2159 14.6497 12.2159 14.4056 12.0973C14.0394 11.9787 13.7952 11.9787 13.551 11.8601C13.0627 11.7416 12.8186 11.623 12.8186 11.623C12.8186 11.623 13.3069 11.1486 14.1614 10.6742C14.5277 10.437 15.016 10.1998 15.6264 9.96259C16.1147 9.72539 16.7251 9.4882 17.3355 9.3696C17.8238 9.25101 18.19 9.13241 18.5562 9.13241C19.777 9.01381 20.7536 9.3696 21.364 9.84399C21.7302 10.0812 21.8523 10.1998 22.0965 10.437C22.2186 10.5556 22.2186 10.5556 22.2186 10.6742V10.7928C22.2186 10.7928 22.0965 10.9114 21.8523 11.03C21.6082 11.1486 21.364 11.3858 20.9978 11.623C20.6315 11.8601 20.1432 12.0973 19.6549 12.2159C19.4108 12.3345 19.1666 12.4531 18.8004 12.4531C18.5562 12.5717 18.19 12.5717 17.9458 12.5717C17.2134 12.5717 16.2368 12.4531 15.3822 12.3345Z" fill="#0227AB"/>
<path d="M2.31982 81.5962C2.56398 81.5962 2.80813 81.4776 3.17437 81.4776C3.29644 81.4776 3.5406 81.4776 3.66268 81.359C3.90683 81.359 4.02891 81.2404 4.27307 81.2404C4.6393 81.1218 5.12761 81.1218 5.61592 81.0032C6.10423 80.8846 6.59254 80.766 7.08085 80.6474C7.32501 80.6474 7.56917 80.5288 7.81332 80.5288C8.05748 80.4102 8.30163 80.4102 8.54579 80.2916C9.0341 80.173 9.64449 80.0545 10.1328 79.8173C12.3302 79.2243 14.2834 78.3941 15.8704 77.6825C16.2367 77.4453 16.6029 77.3267 16.8471 77.2081C16.9691 77.0895 17.0912 77.0895 17.2133 76.9709C17.3354 76.8523 17.4575 76.8523 17.5795 76.7337C17.9458 76.4965 18.1899 76.3779 18.1899 76.3779C18.1899 76.3779 18.4341 76.2593 18.8003 76.0221C19.1665 75.7849 19.7769 75.4292 20.5094 74.9548C21.8523 74.1246 23.6834 72.82 25.3925 71.3968C27.1016 69.9737 28.5665 68.4319 29.6652 67.2459C29.7873 67.1273 29.9094 67.0087 30.0315 66.7715C30.1535 66.6529 30.2756 66.5343 30.3977 66.4157C30.6419 66.1785 30.7639 65.9414 30.886 65.8228C31.0081 65.7042 31.1302 65.467 31.2522 65.3484C31.3743 65.2298 31.3743 65.2298 31.3743 65.2298C31.3743 65.2298 31.4964 64.9926 31.8626 64.6368C31.9847 64.3996 32.2289 64.281 32.3509 63.9252C32.5951 63.688 32.7172 63.3322 32.9613 62.9764C33.0834 62.8578 33.2055 62.6206 33.3276 62.502C33.4496 62.2648 33.5717 62.1462 33.6938 61.909C33.938 61.5533 34.1821 61.0789 34.4263 60.7231C34.6704 60.2487 34.9146 59.8929 35.1587 59.4185C35.2808 59.2999 35.2808 59.1813 35.4029 59.0627C35.4029 58.9441 35.525 58.8255 35.525 58.7069C35.647 58.4697 35.7691 58.2325 35.8912 57.9953C36.7457 56.0978 37.6003 54.0816 37.9665 52.5398C37.9665 52.3027 38.0886 52.1841 38.0886 51.9469C38.0886 51.8283 38.2107 51.5911 38.2107 51.4725C38.3327 51.1167 38.3327 50.8795 38.4548 50.6423C38.5769 50.1679 38.5769 49.9307 38.5769 49.9307C38.5769 49.9307 38.5769 49.8121 38.5769 49.6935C38.5769 49.5749 38.5769 49.3377 38.699 49.2191C38.699 48.9819 38.8211 48.7447 38.8211 48.3889C38.8211 48.0331 38.9431 47.6774 39.0652 47.3216C39.0652 46.9658 39.1873 46.4914 39.1873 46.017C39.1873 45.8984 39.1873 45.7798 39.1873 45.6612C39.1873 45.5426 39.1873 45.424 39.1873 45.3054C39.1873 45.0682 39.1873 44.831 39.1873 44.5938C39.3094 43.645 39.3094 42.5777 39.3094 41.5103C39.3094 40.4429 39.3094 39.3755 39.1873 38.4268C39.1873 38.1896 39.1873 37.9524 39.1873 37.7152C39.1873 37.5966 39.1873 37.478 39.1873 37.3594C39.1873 37.2408 39.1873 37.1222 39.1873 37.0036C39.1873 36.5292 39.0652 36.1734 39.0652 35.699C39.0652 35.3432 38.9431 34.9874 38.8211 34.6316C38.8211 34.2758 38.699 34.0387 38.699 33.8015C38.699 33.5643 38.5769 33.4457 38.5769 33.3271C38.5769 33.2085 38.5769 33.0899 38.5769 33.0899C38.5769 33.0899 38.4548 32.8527 38.4548 32.3783C38.4548 32.1411 38.3327 31.9039 38.2107 31.5481C38.5769 32.0225 38.4548 31.7853 38.4548 31.6667C38.4548 31.5481 38.3327 31.3109 38.3327 31.0737C37.8444 29.5319 37.112 27.6344 36.2574 25.6182C36.1353 25.381 36.0133 25.1438 35.8912 24.9067C35.8912 24.7881 35.7691 24.6695 35.7691 24.5509C35.647 24.4323 35.647 24.3137 35.525 24.1951C35.2808 23.7207 35.0366 23.2463 34.7925 22.8905C34.5483 22.4161 34.3042 22.0603 34.06 21.7045C33.9379 21.4673 33.8159 21.3487 33.6938 21.1115C33.5717 20.8743 33.4496 20.7557 33.3276 20.6371C33.0834 20.2813 32.8393 20.0442 32.7172 19.6884C32.473 19.4512 32.3509 19.214 32.2289 18.9768C31.9847 18.621 31.7406 18.3838 31.7406 18.3838C31.7406 18.3838 31.7406 18.3838 31.6185 18.2652C31.4964 18.1466 31.4964 18.028 31.2522 17.7908C31.1302 17.5536 30.886 17.435 30.7639 17.1978C30.6419 17.0792 30.5198 16.9606 30.3977 16.842C30.2756 16.7234 30.1535 16.6048 30.0315 16.3676C28.9328 15.1817 27.4678 13.6399 25.7587 12.2167C24.0497 10.7936 22.3406 9.60758 20.8756 8.6588C20.1432 8.30301 19.5328 7.94722 19.1665 7.71002C18.6782 7.47283 18.5562 7.35423 18.5562 7.35423C18.5562 7.35423 18.312 7.23564 17.9458 6.99844C17.8237 6.99844 17.7016 6.87984 17.5795 6.76125C17.4575 6.64265 17.3354 6.64265 17.2133 6.52405C17.0912 6.52405 16.9691 6.40545 16.8471 6.40545C16.6029 6.40545 16.2367 6.40545 15.7484 6.40545C14.8938 6.40545 13.673 6.16826 12.6964 5.69387C12.2081 5.45667 11.7198 5.10088 11.2315 4.62649C10.9873 4.3893 10.7432 4.2707 10.6211 4.0335C10.377 3.79631 10.2549 3.67771 10.0107 3.44052C9.64449 3.08473 9.40033 2.72893 9.15617 2.49174C8.91202 2.25454 8.78994 2.13595 8.78994 2.13595C8.78994 2.13595 9.0341 2.13595 9.40033 2.13595C9.76657 2.13595 10.377 2.13595 10.9873 2.13595C11.1094 2.13595 11.3536 2.13595 11.4757 2.13595C11.5977 2.13595 11.8419 2.13595 11.964 2.25454C12.3302 2.25454 12.6964 2.37314 13.0627 2.49174C13.7951 2.61034 14.4055 2.84753 15.0159 3.20332C15.5042 3.44052 15.9925 3.79631 16.3588 4.1521C16.725 4.50789 16.8471 4.86369 16.9692 5.21948C17.0912 5.57527 17.2133 5.81247 17.2133 6.04966V6.16826H17.3354C17.4575 6.28686 17.5795 6.28686 17.8237 6.40545C17.9458 6.52405 18.0679 6.52405 18.1899 6.64265C18.5562 6.87984 18.8003 6.99844 18.8003 6.99844C18.8003 6.99844 18.9224 7.11704 19.4107 7.35423C19.7769 7.59143 20.3873 7.94722 21.1198 8.42161C22.4626 9.37039 24.2938 10.5564 26.0029 11.9795C27.712 13.4027 29.1769 14.9445 30.2756 16.1304C30.3977 16.249 30.5198 16.4862 30.6419 16.6048C30.7639 16.7234 30.886 16.842 31.0081 16.9606C31.2522 17.1978 31.3743 17.435 31.6185 17.6722C31.7406 17.9094 31.8626 18.028 31.9847 18.1466C32.1068 18.2652 32.1068 18.2652 32.1068 18.2652C32.1068 18.2652 32.2289 18.5024 32.5951 18.8582C32.7172 19.0954 32.9613 19.3326 33.0834 19.5698C33.3276 19.807 33.4496 20.1628 33.6938 20.5185C33.8159 20.6371 33.9379 20.8743 34.06 20.9929C34.1821 21.2301 34.3042 21.3487 34.4263 21.5859C34.6704 21.9417 34.9146 22.4161 35.1587 22.7719C35.4029 23.2463 35.647 23.7207 35.8912 24.0765C35.8912 24.1951 36.0133 24.3137 36.0133 24.4323C36.0133 24.5509 36.1353 24.6695 36.1353 24.7881C36.2574 25.0252 36.3795 25.2624 36.5016 25.4996C37.4782 27.3972 38.2107 29.4134 38.5769 30.9551C38.5769 31.1923 38.699 31.3109 38.699 31.5481C38.699 31.6667 38.8211 31.9039 38.8211 32.0225C38.9431 32.3783 38.9431 32.6155 39.0652 32.8527C39.1873 33.3271 39.1873 33.5643 39.1873 33.5643C39.1873 33.5643 39.1873 33.6829 39.1873 33.8015C39.1873 33.9201 39.1873 34.1572 39.3094 34.2758C39.3094 34.513 39.4314 34.7502 39.4314 35.106C39.4314 35.4618 39.5535 35.8176 39.6756 36.1734C39.6756 36.5292 39.7977 37.0036 39.7977 37.478C39.7977 37.5966 39.7977 37.7152 39.7977 37.8338C39.7977 37.9524 39.7977 38.071 39.7977 38.1896C39.7977 38.4268 39.7977 38.664 39.7977 38.9011C39.9198 39.8499 39.9198 40.9173 39.9198 41.9847C39.9198 43.0521 39.9198 44.1194 39.7977 45.0682C39.7977 45.3054 39.7977 45.5426 39.7977 45.7798C39.7977 45.8984 39.7977 46.017 39.7977 46.1356C39.7977 46.2542 39.7977 46.3728 39.7977 46.4914C39.7977 46.9658 39.6756 47.3216 39.6756 47.796C39.6756 48.1517 39.5535 48.5075 39.4314 48.8633C39.4314 49.2191 39.3094 49.4563 39.3094 49.6935C39.3094 49.9307 39.1873 50.0493 39.1873 50.1679C39.1873 50.2865 39.1873 50.4051 39.1873 50.4051C39.1873 50.4051 39.0652 50.6423 39.0652 51.1167C39.0652 51.3539 38.9431 51.5911 38.8211 51.9469C38.8211 52.0655 38.699 52.3027 38.699 52.4212C38.699 52.5398 38.5769 52.777 38.5769 53.0142C38.0886 54.556 37.3561 56.5722 36.5016 58.4697C36.3795 58.7069 36.2574 58.9441 36.1353 59.1813C36.1353 59.2999 36.0133 59.4185 36.0133 59.5371C35.8912 59.6557 35.8912 59.7743 35.7691 59.8929C35.525 60.3673 35.2808 60.8417 35.0366 61.1975C34.7925 61.6718 34.5483 62.0276 34.3042 62.3834C34.1821 62.6206 34.06 62.7392 33.938 62.9764C33.8159 63.2136 33.6938 63.3322 33.5717 63.4508C33.3276 63.8066 33.0834 64.0438 32.9613 64.3996C32.7172 64.6368 32.5951 64.874 32.473 65.1112C32.2289 65.467 31.9847 65.7042 31.9847 65.7042C31.9847 65.7042 31.9847 65.7042 31.8626 65.8228C31.7406 65.9414 31.6185 66.06 31.4964 66.2971C31.3743 66.5343 31.1302 66.6529 30.886 67.0087C30.7639 67.1273 30.6419 67.2459 30.5198 67.3645C30.3977 67.4831 30.2756 67.6017 30.1535 67.8389C29.0548 69.0249 27.4678 70.5667 25.8808 71.9898C24.1717 73.413 22.3406 74.7176 20.9977 75.5478C20.2652 76.0221 19.6549 76.3779 19.2886 76.6151C18.8003 76.8523 18.5562 76.9709 18.5562 76.9709C18.5562 76.9709 18.312 77.0895 17.9458 77.3267C17.8237 77.3267 17.7016 77.4453 17.5795 77.5639C17.4575 77.6825 17.3354 77.6825 17.0912 77.8011C16.725 77.9197 16.4808 78.1569 16.1146 78.2755C14.6497 78.9871 12.5743 79.8173 10.3769 80.4102C9.88864 80.6474 9.27826 80.766 8.78994 80.8846C8.54579 81.0032 8.30163 81.0032 7.9354 81.1218C7.69124 81.2404 7.44709 81.2404 7.20293 81.2404C6.71462 81.359 6.22631 81.4776 5.738 81.5962C5.24969 81.7148 4.76138 81.7148 4.39514 81.8334C4.15099 81.8334 4.02891 81.952 3.78476 81.952C3.5406 81.952 3.41853 81.952 3.29645 82.0706C2.93021 82.0706 2.68606 82.1892 2.4419 82.1892C1.95359 82.1892 1.70944 82.3078 1.70944 82.3078V81.952C1.58736 81.7148 1.83151 81.5962 2.31982 81.5962Z" fill="#0227AB"/>
<path d="M7.20293 81.2404C7.20293 81.2404 1.34285 82.6631 0 88L0.122078 81.8329L6.71427 80.8842L7.20293 81.2404Z" fill="#0227AB"/>
</svg>
