<svg width="40" height="40" viewBox="0 0 40 40" fill="none" xmlns="http://www.w3.org/2000/svg">
<g clip-path="url(#clip0)">
<path d="M25.9273 19.7902C31.3849 19.7902 35.8249 15.3513 35.8249 9.89508C35.8249 4.43883 31.3848 0 25.9273 0C20.4697 0 16.0296 4.43891 16.0296 9.89515C16.0296 15.3514 20.4697 19.7902 25.9273 19.7902ZM25.9273 2.34375C30.0926 2.34375 33.4812 5.73133 33.4812 9.89515C33.4812 14.059 30.0926 17.4466 25.9273 17.4466C21.762 17.4466 18.3733 14.059 18.3733 9.89515C18.3733 5.73133 21.762 2.34375 25.9273 2.34375Z" fill="#0227AB"/>
<path d="M39.1941 22.4367C37.9267 20.8049 35.6385 20.498 33.9915 21.6406L29.5328 24.6235C28.9132 23.4699 27.6949 22.6835 26.2961 22.6835H23.1156C21.5101 21.1777 19.3667 20.3228 17.156 20.3228C15.4967 20.3228 13.8825 20.7915 12.4882 21.6784C11.2319 22.4775 10.2042 23.5814 9.49807 24.8847L8.90104 25.2498L8.74635 24.7974C8.53698 24.1851 7.87104 23.8583 7.25869 24.0675L0.793147 26.2768C0.181038 26.486 -0.14615 27.1525 0.0632254 27.7649L3.97518 39.2072C4.18463 39.8199 4.8508 40.1461 5.46284 39.9371L11.9284 37.7279C12.5058 37.5306 12.8841 36.9004 12.6453 36.202L22.9048 35.8844C25.6988 35.8807 28.3781 35.0226 30.6541 33.4027L38.391 27.8994C40.1647 26.6368 40.5309 24.1565 39.1941 22.4367ZM5.81377 37.3404L2.66002 28.1157L6.90776 26.6643C7.36533 28.0028 9.58924 34.5075 10.0615 35.889L5.81377 37.3404ZM37.0323 25.9896L29.2954 31.4929C27.4133 32.8325 25.197 33.5406 22.8862 33.5406C22.8742 33.5406 22.862 33.5407 22.8499 33.5411L11.8521 33.8815L9.67783 27.5219L10.9993 26.7138C10.9996 26.7136 10.9999 26.7134 11.0002 26.7132C11.1947 26.5941 11.3468 26.4193 11.4396 26.2302C12.5181 24.032 14.7085 22.6664 17.156 22.6664C18.9246 22.6664 20.5672 23.3744 21.7813 24.66C22.0049 24.8969 22.3262 25.027 22.6333 25.027H26.2961C27.0283 25.027 27.6239 25.6223 27.6239 26.3541C27.6239 27.0782 27.0382 27.6812 26.2961 27.6812H19.6845C19.0373 27.6812 18.5127 28.2059 18.5127 28.8531C18.5127 29.5003 19.0374 30.025 19.6845 30.025H26.2961C27.2776 30.025 28.1997 29.6428 28.8918 28.9496C29.376 28.4656 29.7078 27.8701 29.8644 27.2214L35.3035 23.5825C35.3101 23.5781 35.3166 23.5737 35.3231 23.5692C35.9645 23.1211 36.8529 23.2431 37.3435 23.8746C37.8607 24.5402 37.7193 25.5007 37.0323 25.9896Z" fill="#0227AB"/>
<path d="M21.682 13.4089H23.273V14.7728C23.273 14.8391 23.2942 14.8934 23.3369 14.9359C23.3795 14.9786 23.434 15 23.5003 15H24.6863C24.7479 15 24.8011 14.9786 24.8461 14.9359C24.8911 14.8934 24.9135 14.8391 24.9135 14.7728V13.4089H28.5002C28.5664 13.4089 28.6208 13.3879 28.6635 13.3451C28.7063 13.3024 28.7275 13.2481 28.7275 13.1817V12.2726C28.7275 12.2066 28.7063 12.1519 28.6635 12.1094C28.621 12.0667 28.5664 12.0453 28.5002 12.0453H24.9134V11.2072H27.3282C28.2751 11.2072 29.0479 10.9187 29.6471 10.3408C30.246 9.76352 30.5456 9.0178 30.5456 8.10362C30.5456 7.19004 30.246 6.44431 29.6471 5.86643C29.0481 5.28912 28.2751 5 27.3282 5H23.5002C23.4338 5 23.3795 5.02135 23.3368 5.06383C23.2942 5.10654 23.2728 5.16123 23.2728 5.22722V9.69465H21.682C21.6157 9.69465 21.5613 9.7171 21.5186 9.76207C21.476 9.80706 21.4547 9.86032 21.4547 9.92185V10.98C21.4547 11.0463 21.4759 11.1007 21.5186 11.1434C21.5613 11.1861 21.6156 11.2072 21.682 11.2072H23.273V12.0453H21.682C21.6157 12.0453 21.5613 12.0667 21.5186 12.1094C21.476 12.1519 21.4547 12.2065 21.4547 12.2726V13.1817C21.4547 13.248 21.4759 13.3024 21.5186 13.3451C21.5613 13.3879 21.6157 13.4089 21.682 13.4089ZM24.9134 6.51294H27.1861C27.688 6.51294 28.0927 6.65967 28.4006 6.95322C28.7083 7.24679 28.8622 7.63044 28.8622 8.10374C28.8622 8.57727 28.7083 8.96103 28.4006 9.25425C28.0927 9.54806 27.688 9.69479 27.1861 9.69479H24.9134V6.51294Z" fill="#0227AB"/>
</g>
<defs>
<clipPath id="clip0">
<rect width="40" height="40" fill="white"/>
</clipPath>
</defs>
</svg>
